<svg width="128" height="114" viewBox="0 0 128 114" fill="none" xmlns="http://www.w3.org/2000/svg">
<path d="M123.733 87.9333V11.1333C123.726 5.2453 118.955 0.473803 113.066 0.466553H14.9333C9.04525 0.473553 4.27375 5.24505 4.2665 11.1333V87.9333C1.91025 87.9333 0 89.8436 0 92.2001V98.6001C0.0095 106.844 6.68975 113.524 14.9333 113.533H113.066C121.31 113.524 127.991 106.844 128 98.6001V92.2001C128 89.8436 126.09 87.9333 123.733 87.9333ZM14.9333 4.7333H113.066C116.601 4.7333 119.466 7.5988 119.466 11.1333V87.9333H72.064L69.2907 76.8763C67.2545 68.6876 60.099 62.7961 51.6715 62.3696C53.1963 60.4793 54.299 58.2848 54.9058 55.9333H55.4668C58.8148 55.9501 61.86 53.9976 63.2425 50.9483C64.6247 47.8988 64.086 44.3218 61.8667 41.8148V38.8666C61.8667 25.9063 51.3603 15.3998 38.4 15.3998C25.4398 15.3998 14.9333 25.9063 14.9333 38.8666V41.8148C12.714 44.3218 12.1753 47.8988 13.5575 50.9483C14.9397 53.9978 17.985 55.9501 21.3333 55.9333H21.8943C22.5005 58.2873 23.604 60.4841 25.1305 62.3761C17.8643 62.7431 11.4335 67.1958 8.53325 73.8683V11.1333C8.53325 7.5988 11.3988 4.7333 14.9333 4.7333ZM21.3333 77.2668C20.155 77.2668 19.2 78.2221 19.2 79.4001V87.9333H9.135L11.648 77.9066C13.2622 71.4583 18.9562 66.8621 25.6 66.6448V69.9301C25.6018 71.8468 26.4622 73.6618 27.9452 74.8761C29.4282 76.0903 31.3773 76.5763 33.2565 76.1998L36.2668 75.6026V87.9333H23.4667V79.4001C23.4667 78.2218 22.5115 77.2668 21.3333 77.2668ZM21.3333 43.1333V51.6666C18.9767 51.6666 17.0665 49.7563 17.0665 47.3998C17.0667 45.0436 18.977 43.1333 21.3333 43.1333ZM21.3333 38.8668C20.612 38.8758 19.895 38.9776 19.2 39.1698V38.8668C19.2 28.2631 27.7963 19.6668 38.4 19.6668C49.0038 19.6668 57.6 28.2631 57.6 38.8668V39.1698C56.9047 38.9778 56.1878 38.8758 55.4668 38.8668H55.3195C54.2508 30.3358 46.9977 23.9348 38.4 23.9348C29.8023 23.9348 22.5492 30.3358 21.4805 38.8668H21.3333ZM55.4668 77.2668C54.2885 77.2668 53.3335 78.2221 53.3335 79.4001V87.9333H40.5335V75.6026L43.5438 76.2041C45.4238 76.5806 47.3737 76.0941 48.8568 74.8788C50.3398 73.6636 51.2 71.8473 51.2002 69.9298V66.6446C57.844 66.8618 63.538 71.4583 65.1523 77.9063L67.6653 87.9331H57.6V79.4001C57.6 78.2218 56.6448 77.2668 55.4668 77.2668ZM29.8668 66.6001H30.157C32.048 67.6466 34.122 68.3208 36.2668 68.5863V71.2508L32.4268 72.0211C31.799 72.1493 31.147 71.9883 30.6507 71.5831C30.1545 71.1778 29.8668 70.5711 29.8668 69.9303V66.6001ZM46.6432 66.6001H46.9335V69.9303C46.9338 70.5711 46.6458 71.1778 46.1495 71.5831C45.6533 71.9883 45.0013 72.1491 44.3735 72.0211L40.5335 71.2508V68.5863C42.6782 68.3208 44.7523 67.6466 46.6432 66.6001ZM38.4 64.4668C31.3338 64.4598 25.607 58.7331 25.6 51.6668V45.4376C30.8288 45.7256 38.929 45.4121 42.6965 41.7363C44.6457 44.6666 47.7265 46.6538 51.2 47.2211V51.6668C51.2 51.9036 51.1765 52.1361 51.1637 52.3708L42.257 55.9336H38.4C37.2218 55.9336 36.2668 56.8886 36.2668 58.0668C36.2668 59.2451 37.2218 60.2001 38.4 60.2001H42.6668C42.9378 60.2003 43.2065 60.1488 43.4582 60.0486L49.7687 57.5248C47.5762 61.7836 43.1898 64.4621 38.4 64.4668ZM51.2 42.8796C48.045 41.9133 45.6053 39.3981 44.736 36.2151C44.4743 35.1703 43.4745 34.4846 42.4055 34.6163C41.3365 34.7481 40.5335 35.6563 40.5332 36.7333C40.554 37.5318 40.2052 38.2953 39.5882 38.8026C37.0795 41.0491 30.338 41.4458 25.6 41.1683V41.0001C25.6 33.9308 31.3308 28.2001 38.4 28.2001C45.4693 28.2001 51.2 33.9308 51.2 41.0001V42.8796ZM55.4668 51.6668V43.1336C57.8232 43.1336 59.7335 45.0438 59.7335 47.4003C59.7332 49.7566 57.823 51.6668 55.4668 51.6668ZM44.8 92.2001H83.2V94.3333C83.2 96.6898 81.2897 98.6001 78.9333 98.6001H49.0667C46.7103 98.6001 44.8 96.6898 44.8 94.3333V92.2001ZM123.733 98.6001C123.726 104.488 118.955 109.26 113.066 109.267H14.9333C9.04525 109.26 4.27375 104.488 4.2665 98.6001V92.2001H40.5332V94.3333C40.5332 99.0461 44.3538 102.867 49.0665 102.867H78.9333C83.646 102.867 87.4665 99.0461 87.4665 94.3333V92.2001H123.733V98.6001Z" fill="url(#paint0_linear_1361_394)"/>
<path d="M32 96.4668H25.6C24.4218 96.4668 23.4668 97.4218 23.4668 98.6C23.4668 99.7783 24.422 100.733 25.6 100.733H32C33.1783 100.733 34.1333 99.7783 34.1333 98.6C34.1333 97.4218 33.1783 96.4668 32 96.4668Z" fill="url(#paint1_linear_1361_394)"/>
<path d="M12.8 100.733C13.9782 100.733 14.9332 99.7782 14.9332 98.6C14.9332 97.4219 13.9782 96.4668 12.8 96.4668C11.6218 96.4668 10.6667 97.4219 10.6667 98.6C10.6667 99.7782 11.6218 100.733 12.8 100.733Z" fill="url(#paint2_linear_1361_394)"/>
<path d="M19.2 100.733C20.3782 100.733 21.3333 99.7782 21.3333 98.6C21.3333 97.4219 20.3782 96.4668 19.2 96.4668C18.0219 96.4668 17.0668 97.4219 17.0668 98.6C17.0668 99.7782 18.0219 100.733 19.2 100.733Z" fill="url(#paint3_linear_1361_394)"/>
<path d="M74.6668 43.1333H76.5868C76.687 43.1695 76.8 43.227 76.8 43.1333V47.4C76.7885 49.0695 77.762 50.5887 79.2833 51.2762C79.8465 51.5365 80.4593 51.6717 81.0795 51.673C82.0515 51.6712 82.9935 51.3345 83.7463 50.7195L94.4833 43.2528C94.5428 43.216 94.6005 43.176 94.656 43.1333H106.667C111.38 43.1333 115.2 39.3127 115.2 34.6V17.5333C115.2 12.8205 111.38 9 106.667 9H74.6668C69.954 9 66.1335 12.8205 66.1335 17.5333V34.6C66.1333 39.3127 69.9538 43.1333 74.6668 43.1333ZM70.4 17.5333C70.4 15.1768 72.3103 13.2665 74.6668 13.2665H106.667C109.023 13.2665 110.934 15.1768 110.934 17.5333V34.6C110.934 36.9565 109.023 38.8667 106.667 38.8667H94.656C93.6813 38.8675 92.736 39.2007 91.9765 39.8117L81.2373 47.2785C81.1785 47.3162 81.1215 47.3568 81.0665 47.4V43.1333C80.9205 40.9568 79.2643 39.1828 77.1028 38.888C77.0025 38.8735 76.9013 38.8662 76.7998 38.8667H74.6665C72.31 38.8667 70.3998 36.9565 70.3998 34.6V17.5333H70.4Z" fill="url(#paint4_linear_1361_394)"/>
<path d="M76.8 23.9332H104.533C105.711 23.9332 106.666 22.978 106.666 21.8C106.666 20.622 105.711 19.6667 104.533 19.6667H76.8C75.6218 19.6667 74.6667 20.622 74.6667 21.8C74.6667 22.978 75.6218 23.9332 76.8 23.9332Z" fill="url(#paint5_linear_1361_394)"/>
<path d="M76.8 32.4668H91.7333C92.9115 32.4668 93.8665 31.5118 93.8665 30.3336C93.8665 29.1553 92.9115 28.2003 91.7333 28.2003H76.8C75.6218 28.2003 74.6667 29.1556 74.6667 30.3336C74.6667 31.5116 75.6218 32.4668 76.8 32.4668Z" fill="url(#paint6_linear_1361_394)"/>
<defs>
<linearGradient id="paint0_linear_1361_394" x1="117.596" y1="6.3827" x2="19.5031" y2="115.21" gradientUnits="userSpaceOnUse">
<stop stop-color="#DA3276"/>
<stop offset="1" stop-color="#ED722E"/>
</linearGradient>
<linearGradient id="paint1_linear_1361_394" x1="33.2664" y1="96.69" x2="30.6623" y2="103.07" gradientUnits="userSpaceOnUse">
<stop stop-color="#DA3276"/>
<stop offset="1" stop-color="#ED722E"/>
</linearGradient>
<linearGradient id="paint2_linear_1361_394" x1="14.5865" y1="96.69" x2="10.8658" y2="100.336" gradientUnits="userSpaceOnUse">
<stop stop-color="#DA3276"/>
<stop offset="1" stop-color="#ED722E"/>
</linearGradient>
<linearGradient id="paint3_linear_1361_394" x1="20.9865" y1="96.69" x2="17.2658" y2="100.336" gradientUnits="userSpaceOnUse">
<stop stop-color="#DA3276"/>
<stop offset="1" stop-color="#ED722E"/>
</linearGradient>
<linearGradient id="paint4_linear_1361_394" x1="111.212" y1="11.2328" x2="74.2543" y2="52.878" gradientUnits="userSpaceOnUse">
<stop stop-color="#DA3276"/>
<stop offset="1" stop-color="#ED722E"/>
</linearGradient>
<linearGradient id="paint5_linear_1361_394" x1="104.066" y1="19.89" x2="103.071" y2="27.1977" gradientUnits="userSpaceOnUse">
<stop stop-color="#DA3276"/>
<stop offset="1" stop-color="#ED722E"/>
</linearGradient>
<linearGradient id="paint6_linear_1361_394" x1="92.306" y1="28.4236" x2="90.7008" y2="35.5025" gradientUnits="userSpaceOnUse">
<stop stop-color="#DA3276"/>
<stop offset="1" stop-color="#ED722E"/>
</linearGradient>
</defs>
</svg>
