<svg width="128" height="124" viewBox="0 0 128 124" fill="none" xmlns="http://www.w3.org/2000/svg">
<path d="M127.898 70.3825C127.579 68.933 126.557 67.7622 125.164 67.2502L119.855 65.299C118.894 64.9457 117.828 65.4385 117.475 66.4C117.121 67.3615 117.614 68.4275 118.576 68.7807L123.884 70.732C124.161 70.8335 124.248 71.056 124.275 71.1795C124.302 71.303 124.317 71.5412 124.108 71.7495L76.7193 119.138C76.5105 119.347 76.272 119.332 76.149 119.305C76.0255 119.278 75.8033 119.191 75.7018 118.914L69.042 100.795C68.603 99.6007 67.6665 98.6645 66.4727 98.2257L48.3532 91.5662C48.0767 91.4645 47.99 91.2422 47.9627 91.1187C47.9355 90.9952 47.921 90.757 48.1292 90.5487L95.5185 43.1597C95.727 42.9512 95.9648 42.966 96.0885 42.993C96.212 43.0202 96.4342 43.107 96.5358 43.3835L103.195 61.503C103.634 62.6972 104.571 63.6335 105.765 64.0722L119 68.9367C119.962 69.2904 121.027 68.7972 121.381 67.8357C121.734 66.8742 121.241 65.8082 120.279 65.4549L107.044 60.5902C106.874 60.5277 106.74 60.394 106.677 60.2235L100.018 42.104C99.506 40.711 98.3353 39.6892 96.886 39.3702C95.4372 39.051 93.9453 39.4875 92.8955 40.5367L91.1015 42.3307V23.9292C91.1015 21.543 89.16 19.6015 86.7738 19.6015H67.8828C69.611 16.2415 69.071 12.007 66.2595 9.19573C63.8525 6.78873 60.362 5.99798 57.2347 6.99798C56.027 3.49448 52.699 0.969482 48.7905 0.969482C44.8823 0.969482 41.5545 3.49398 40.3465 6.99698C37.2195 5.99523 33.7325 6.78448 31.3218 9.19548C29.6348 10.8822 28.7057 13.125 28.7057 15.5107C28.7057 16.9577 29.0497 18.3515 29.6952 19.6012H28.1392C27.115 19.6012 26.2845 20.4317 26.2845 21.456C26.2845 22.4802 27.115 23.3107 28.1392 23.3107H41.3568V40.8655C39.3047 40.492 37.2158 40.2987 35.1155 40.2987C31.2495 40.2987 27.6115 40.9012 24.13 42.0607L10.1895 42.0612V23.929C10.1895 23.588 10.4668 23.3107 10.8077 23.3107H30.5603C31.5845 23.3107 32.415 22.4802 32.415 21.456C32.415 20.4317 31.5845 19.6012 30.5603 19.6012H10.8073C8.421 19.6012 6.4795 21.5427 6.4795 23.929V55.075C6.4795 55.0862 6.481 55.0972 6.48125 55.1087C2.40125 60.8452 0 67.8545 0 75.414C0 82.9565 2.3655 90.15 6.84075 96.217C7.2045 96.71 7.76575 96.9707 8.33475 96.9707C8.71725 96.9707 9.103 96.853 9.43425 96.6085C10.2587 96.0005 10.434 94.8392 9.82575 94.0147C5.82425 88.5902 3.70925 82.158 3.70925 75.4137C3.70925 58.0967 17.7978 44.0085 35.1147 44.0085C49.6297 44.0085 62.1075 53.7875 65.5947 67.837L62.4548 70.977C61.5155 65.1455 58.736 59.7747 54.4255 55.5772C49.2205 50.5092 42.3625 47.718 35.1147 47.718C19.8433 47.718 7.41875 60.1422 7.41875 75.4137C7.41875 90.6852 19.843 103.11 35.1147 103.11C41.4178 103.11 47.5228 100.952 52.4277 97.016L56.4033 98.477C50.624 103.807 43.009 106.819 35.1147 106.819C27.9497 106.819 20.9365 104.332 15.367 99.816C14.5715 99.1707 13.4035 99.2927 12.7583 100.088C12.113 100.884 12.235 102.052 13.0308 102.697C19.2588 107.748 27.1017 110.529 35.1147 110.529C44.5695 110.529 53.6647 106.667 60.2627 99.8955L65.193 101.707C65.3635 101.77 65.4973 101.904 65.5598 102.074L72.2193 120.194C72.7313 121.587 73.902 122.609 75.351 122.928C75.6635 122.996 75.978 123.03 76.2895 123.03C77.423 123.03 78.5182 122.584 79.3418 121.761L126.731 74.3725C127.78 73.3232 128.217 71.8317 127.898 70.3825ZM10.189 50.706V45.7712H16.3105C14.0882 47.186 12.0355 48.8432 10.189 50.706ZM87.3917 23.9292V42.0615H56.2243V23.311H86.7735C87.1145 23.311 87.3917 23.5885 87.3917 23.9292ZM63.6365 11.8187C65.6722 13.8547 65.6722 17.1675 63.6367 19.203C63.5555 19.2845 63.3978 19.4195 63.124 19.6015H54.0872C56.7795 14.5372 57.4775 12.0592 57.6577 10.8142C59.6447 9.84273 62.0452 10.2275 63.6365 11.8187ZM48.7902 4.67898C51.6695 4.67898 54.012 7.02148 54.012 9.90048C54.012 10.4365 53.707 12.7095 49.8623 19.6012H47.7185C43.8745 12.7112 43.5687 10.4375 43.5687 9.90048C43.5687 7.02148 45.911 4.67898 48.7902 4.67898ZM33.9445 19.2032C32.9582 18.217 32.415 16.9057 32.415 15.511C32.415 14.1162 32.9582 12.805 33.9445 11.8187C35.5385 10.2247 37.9355 9.84223 39.923 10.8152C40.1035 12.0607 40.801 14.5375 43.4933 19.6015H34.457C34.1833 19.4197 34.026 19.2847 33.9445 19.2032ZM45.0658 23.311H52.5148V42.0615H46.0925C46.0842 42.0615 46.0765 42.0625 46.0682 42.0627C45.7357 41.9532 45.4012 41.8502 45.0658 41.7507V23.311ZM57.0617 48.02C56.0527 47.2102 55.001 46.4605 53.9142 45.7712H87.392V46.0402L80.212 53.2202H62.3008C60.7472 51.317 58.9927 49.57 57.0617 48.02ZM64.9498 56.9297H76.5023L68.5977 64.8342C67.716 62.0582 66.486 59.4012 64.9498 56.9297ZM35.115 99.4005C21.8888 99.4005 11.1287 88.6402 11.1287 75.4142C11.1287 62.1882 21.889 51.428 35.115 51.428C47.8478 51.428 58.519 61.68 59.0765 74.356L45.5065 87.926C44.4572 88.9752 44.021 90.467 44.34 91.9162C44.659 93.3655 45.681 94.5362 47.0737 95.0482L48.243 95.478C44.3587 98.0242 39.7998 99.4005 35.115 99.4005Z" fill="url(#paint0_linear_1361_386)"/>
<path d="M90.9453 96.775C91.1788 96.775 91.4168 96.7305 91.6463 96.6365C92.5945 96.249 93.049 95.166 92.6613 94.2178L81.9818 68.0918C81.5945 67.1438 80.5118 66.6885 79.563 67.0768C78.6148 67.4643 78.1603 68.5473 78.548 69.4955L89.2275 95.6215C89.5213 96.34 90.214 96.775 90.9453 96.775Z" fill="url(#paint1_linear_1361_386)"/>
<path d="M68.894 75.8262C67.5945 77.1257 66.959 78.9102 67.1045 80.851C67.2423 82.687 68.0743 84.4545 69.447 85.8272C70.82 87.2002 72.5873 88.0322 74.4235 88.1697C74.6055 88.1835 74.7863 88.1902 74.9653 88.1902C76.6948 88.1902 78.2705 87.5577 79.4483 86.3802C80.7478 85.0807 81.3833 83.2962 81.2378 81.3555C81.1 79.5192 80.268 77.752 78.8953 76.379C77.5223 75.006 75.755 74.174 73.9188 74.0365C71.9765 73.8902 70.1933 74.5267 68.894 75.8262ZM76.2723 79.0022C77.0175 79.7477 77.4675 80.682 77.5388 81.633C77.6023 82.4792 77.3488 83.2337 76.825 83.7575C76.3015 84.281 75.5463 84.5335 74.7008 84.471C73.7498 84.3997 72.8155 83.95 72.07 83.2045C71.3248 82.459 70.8748 81.5247 70.8035 80.574C70.74 79.7277 70.9935 78.9732 71.5173 78.4495C71.988 77.9787 72.6453 77.7265 73.3885 77.7265C73.4718 77.7265 73.5563 77.7297 73.6415 77.736C74.5925 77.807 75.5268 78.2567 76.2723 79.0022C76.272 79.0022 76.272 79.0022 76.2723 79.0022Z" fill="url(#paint2_linear_1361_386)"/>
<path d="M97.9777 90.342C99.7075 90.342 101.283 89.7095 102.461 88.532C105.065 85.9273 104.817 81.4408 101.908 78.5308C98.9985 75.621 94.5117 75.3733 91.9067 77.9778C89.302 80.5825 89.55 85.069 92.4597 87.9788C93.8327 89.3518 95.6 90.1838 97.4362 90.3213C97.6185 90.3353 97.799 90.342 97.9777 90.342ZM94.53 80.601C95.0212 80.1098 95.6875 79.8715 96.404 79.8715C97.3767 79.8715 98.442 80.3113 99.2847 81.154C100.748 82.6175 100.996 84.7508 99.8375 85.9093C99.314 86.4325 98.5592 86.686 97.7135 86.6228C96.7625 86.5515 95.828 86.1018 95.0827 85.3563C93.6195 83.8925 93.3715 81.7595 94.53 80.601Z" fill="url(#paint3_linear_1361_386)"/>
<defs>
<linearGradient id="paint0_linear_1361_386" x1="117.597" y1="7.35623" x2="11.1686" y2="116.731" gradientUnits="userSpaceOnUse">
<stop stop-color="#DA3276"/>
<stop offset="1" stop-color="#ED722E"/>
</linearGradient>
<linearGradient id="paint1_linear_1361_386" x1="91.6301" y1="68.4993" x2="71.5208" y2="78.004" gradientUnits="userSpaceOnUse">
<stop stop-color="#DA3276"/>
<stop offset="1" stop-color="#ED722E"/>
</linearGradient>
<linearGradient id="paint2_linear_1361_386" x1="80.1062" y1="74.7575" x2="67.7451" y2="86.8712" gradientUnits="userSpaceOnUse">
<stop stop-color="#DA3276"/>
<stop offset="1" stop-color="#ED722E"/>
</linearGradient>
<linearGradient id="paint3_linear_1361_386" x1="103.112" y1="76.9168" x2="90.7582" y2="89.0171" gradientUnits="userSpaceOnUse">
<stop stop-color="#DA3276"/>
<stop offset="1" stop-color="#ED722E"/>
</linearGradient>
</defs>
</svg>
