<svg width="128" height="120" viewBox="0 0 128 120" fill="none" xmlns="http://www.w3.org/2000/svg">
<path fill-rule="evenodd" clip-rule="evenodd" d="M116.498 68.5253H115.01V70.0064C115.01 71.2112 114.039 72.182 112.842 72.182C111.637 72.182 110.666 71.2112 110.666 70.0064V68.5253H109.178C107.98 68.5253 107.002 67.5473 107.002 66.3497C107.002 65.1449 107.98 64.1741 109.178 64.1741H110.666V62.6858C110.666 61.4882 111.637 60.5173 112.842 60.5173C114.039 60.5173 115.01 61.4882 115.01 62.6858V64.1741H116.498C117.703 64.1741 118.674 65.1449 118.674 66.3497C118.674 67.5473 117.703 68.5253 116.498 68.5253ZM125.824 99.5863H118.568C117.469 110.627 108.129 119.287 96.7972 119.287C85.4656 119.287 76.1254 110.627 75.0269 99.5863H2.17562C0.970878 99.5863 0 98.6083 0 97.4107V2.88826C0 1.69061 0.970878 0.712646 2.17562 0.712646H125.824C127.029 0.712646 128 1.69061 128 2.88826V97.4107C128 98.6083 127.029 99.5863 125.824 99.5863ZM118.568 95.2351H123.656V22.9153H4.34415V95.2351H9.3261V88.9421C9.3261 83.0743 14.1025 78.2979 19.9703 78.2979H39.9052C45.773 78.2979 50.5494 83.0743 50.5494 88.9421V95.2351H60.563V52.6723C60.563 51.4747 61.5338 50.5038 62.7386 50.5038H91.4539C93.4311 50.5038 94.3807 52.9487 92.9137 54.281L85.0262 61.4599L92.9421 68.8584C94.3736 70.1978 93.4169 72.6214 91.4539 72.6214H64.9071V95.2351H75.0269C76.1254 84.194 85.4656 75.534 96.7972 75.534C108.129 75.534 117.469 84.194 118.568 95.2351ZM4.34415 18.564H123.656V5.06388H4.34415V18.564ZM18.716 13.986H11.6222C10.4245 13.986 9.45366 13.0152 9.45366 11.8175C9.45366 10.6128 10.4245 9.64189 11.6222 9.64189H18.716C19.9136 9.64189 20.8845 10.6128 20.8845 11.8175C20.8845 13.0152 19.9136 13.986 18.716 13.986ZM34.9445 13.986H27.8578C26.6602 13.986 25.6822 13.0152 25.6822 11.8175C25.6822 10.6128 26.6602 9.64189 27.8578 9.64189H34.9445C36.1493 9.64189 37.1201 10.6128 37.1201 11.8175C37.1201 13.0152 36.1493 13.986 34.9445 13.986ZM110.184 34.0556H17.816C16.6183 34.0556 15.6474 33.0776 15.6474 31.88C15.6474 30.6823 16.6183 29.7043 17.816 29.7043H110.184C111.382 29.7043 112.36 30.6823 112.36 31.88C112.36 33.0776 111.382 34.0556 110.184 34.0556ZM93.8067 43.0628H34.1933C32.9957 43.0628 32.0177 42.0919 32.0177 40.8942C32.0177 39.6895 32.9957 38.7186 34.1933 38.7186H93.8067C95.0043 38.7186 95.9823 39.6895 95.9823 40.8942C95.9823 42.0919 95.0043 43.0628 93.8067 43.0628ZM13.6773 95.2351H46.2053V88.9421C46.2053 85.4696 43.3777 82.642 39.9052 82.642H19.9703C16.4978 82.642 13.6773 85.4696 13.6773 88.9421V95.2351ZM29.9413 74.2301C23.3152 74.2301 17.9294 68.8442 17.9294 62.2181C17.9294 55.5991 23.3152 50.2133 29.9413 50.2133C36.5603 50.2133 41.9462 55.5991 41.9462 62.2181C41.9462 68.8442 36.5603 74.2301 29.9413 74.2301ZM29.9413 54.5574C25.7176 54.5574 22.2806 57.9945 22.2806 62.2181C22.2806 66.4418 25.7176 69.8789 29.9413 69.8789C34.165 69.8789 37.602 66.4418 37.602 62.2181C37.602 57.9945 34.165 54.5574 29.9413 54.5574ZM96.7972 79.8853C87.131 79.8853 79.2718 87.7444 79.2718 97.4107C79.2718 107.077 87.131 114.936 96.7972 114.936C106.464 114.936 114.323 107.077 114.323 97.4107C114.323 87.7444 106.464 79.8853 96.7972 79.8853ZM64.9071 54.848V68.2773H85.9475L80.3348 63.026C79.4065 62.1543 79.4136 60.6803 80.3561 59.8299L85.8341 54.848H64.9071ZM104.692 51.7015C103.494 51.7015 102.516 50.7235 102.516 49.5258V47.3786H100.376C99.1713 47.3786 98.2004 46.4077 98.2004 45.21C98.2004 44.0053 99.1713 43.0344 100.376 43.0344H102.516V40.8942C102.516 39.6895 103.494 38.7186 104.692 38.7186C105.889 38.7186 106.867 39.6895 106.867 40.8942V43.0344H109.008C110.212 43.0344 111.183 44.0053 111.183 45.21C111.183 46.4077 110.212 47.3786 109.008 47.3786H106.867V49.5258C106.867 50.7235 105.889 51.7015 104.692 51.7015ZM49.94 73.5568C48.7352 73.5568 47.7644 72.586 47.7644 71.3883V69.2411H45.6171C44.4194 69.2411 43.4486 68.2702 43.4486 67.0654C43.4486 65.8678 44.4194 64.8969 45.6171 64.8969H47.7644V62.7496C47.7644 61.552 48.7352 60.574 49.94 60.574C51.1376 60.574 52.1085 61.552 52.1085 62.7496V64.8969H54.2558C55.4534 64.8969 56.4314 65.8678 56.4314 67.0654C56.4314 68.2702 55.4534 69.2411 54.2558 69.2411H52.1085V71.3883C52.1085 72.586 51.1376 73.5568 49.94 73.5568Z" fill="url(#paint0_linear_1360_317)"/>
<defs>
<linearGradient id="paint0_linear_1360_317" x1="117.597" y1="6.91699" x2="14.3332" y2="116.159" gradientUnits="userSpaceOnUse">
<stop stop-color="#DA3276"/>
<stop offset="1" stop-color="#ED722E"/>
</linearGradient>
</defs>
</svg>
