<svg width="124" height="128" viewBox="0 0 124 128" fill="none" xmlns="http://www.w3.org/2000/svg">
<path d="M113.803 0.351807H10.1982C4.62725 0.351807 0.272247 5.05106 0.272247 10.2671V109.632C0.272247 115.106 4.72575 119.559 10.1992 119.559H91.0175C91.357 121.135 93.2675 121.639 94.359 120.548L95.3477 119.559H101.18L107.571 125.968C109.84 128.21 113.54 128.21 115.824 125.958L118.45 123.331C120.013 121.768 120.493 119.477 119.86 117.465C122.275 115.606 123.728 112.762 123.728 109.632V10.2671C123.728 5.04881 119.36 0.351807 113.803 0.351807ZM119.745 10.2731V22.5681H4.2545V10.2731C4.2545 7.06831 6.89025 4.34031 10.199 4.34031H113.801C117.06 4.34006 119.745 6.97331 119.745 10.2731ZM10.199 115.581C6.91875 115.581 4.2505 112.911 4.2505 109.632V26.5466H119.749V109.632C119.749 111.439 118.949 113.098 117.593 114.213L109.138 105.774L113.037 101.892C114.171 100.763 113.57 98.8123 111.99 98.5258L89.1525 94.3471C89.054 94.3273 88.955 94.3303 88.8562 94.3266C94.8667 87.8111 98.5725 79.1428 98.5725 69.6053C98.5725 49.4288 82.157 33.0136 61.9817 33.0136C41.8257 33.0136 25.4267 49.4291 25.4267 69.6053C25.4267 89.7603 41.8257 106.158 61.9817 106.158C71.574 106.158 80.289 102.423 86.8213 96.3678C86.8245 96.4656 86.821 96.563 86.839 96.6606L90.2893 115.58H10.199V115.581ZM61.9815 102.18C44.0187 102.18 29.405 87.5673 29.405 69.6056C29.405 51.6223 44.0185 36.9923 61.9815 36.9923C79.9637 36.9923 94.5938 51.6226 94.5938 69.6056C94.5938 87.5673 79.9637 102.18 61.9815 102.18ZM115.637 120.519L113.02 123.135C112.291 123.858 111.101 123.86 110.376 123.147L103.413 116.165C103.413 116.165 103.413 116.165 103.412 116.165C103.412 116.164 103.412 116.164 103.411 116.163L99.6718 112.424C98.8948 111.647 97.6357 111.647 96.8587 112.424L94.2353 115.046L91.2678 98.7786L107.535 101.755L104.917 104.362C104.138 105.14 104.136 106.4 104.917 107.181L115.566 117.813C115.597 117.863 115.646 117.897 115.68 117.944C115.706 117.979 115.713 118.022 115.741 118.056C116.346 118.772 116.299 119.854 115.637 120.519Z" fill="url(#paint0_linear_1360_268)"/>
<path d="M17.117 11.4601H12.645C11.5465 11.4601 10.6557 12.3498 10.6557 13.4493C10.6557 14.5488 11.5465 15.4386 12.645 15.4386H17.117C18.2155 15.4386 19.1062 14.5488 19.1062 13.4493C19.1062 12.3498 18.2155 11.4601 17.117 11.4601Z" fill="url(#paint1_linear_1360_268)"/>
<path d="M27.8335 11.4601H23.3615C22.263 11.4601 21.3723 12.3498 21.3723 13.4493C21.3723 14.5488 22.263 15.4386 23.3615 15.4386H27.8335C28.932 15.4386 29.8228 14.5488 29.8228 13.4493C29.8228 12.3498 28.9323 11.4601 27.8335 11.4601Z" fill="url(#paint2_linear_1360_268)"/>
<path d="M38.5513 11.4601H34.0783C32.9798 11.4601 32.089 12.3498 32.089 13.4493C32.089 14.5488 32.9798 15.4386 34.0783 15.4386H38.5513C39.6498 15.4386 40.5405 14.5488 40.5405 13.4493C40.5405 12.3498 39.6498 11.4601 38.5513 11.4601Z" fill="url(#paint3_linear_1360_268)"/>
<path d="M61.9845 43.9585C47.8623 43.9585 36.3735 55.461 36.3735 69.6015C36.3735 83.7245 47.8623 95.2135 61.9845 95.2135C76.125 95.2135 87.6275 83.7247 87.6275 69.6015C87.6275 55.461 76.125 43.9585 61.9845 43.9585ZM61.9845 91.235C50.0565 91.235 40.352 81.5295 40.352 69.6015C40.352 57.656 50.0565 47.937 61.9845 47.937C73.93 47.937 83.649 57.656 83.649 69.6015C83.649 81.5295 73.9298 91.235 61.9845 91.235Z" fill="url(#paint4_linear_1360_268)"/>
<path d="M61.9872 61.6983C61.9917 61.6983 61.9957 61.7008 62 61.7008C62.0067 61.7008 62.0125 61.697 62.0192 61.6968H66.9362C68.0357 61.6968 68.9255 60.807 68.9255 59.7075C68.9255 58.608 68.0357 57.7183 66.9362 57.7183H63.9892V54.9208C63.9892 53.8213 63.0985 52.9315 62 52.9315C60.9015 52.9315 60.0107 53.8213 60.0107 54.9208V58.0443C57.165 58.9058 55.0745 61.5225 55.0745 64.6458C55.0745 68.218 57.7895 71.3918 61.841 71.5435C63.9827 71.7225 64.9472 72.9705 64.9472 74.5185C64.9472 76.1425 63.6252 77.4655 62.0002 77.4655H57.064C55.9655 77.4655 55.0747 78.3553 55.0747 79.4548C55.0747 80.5543 55.9655 81.444 57.064 81.444H60.011V84.2513C60.011 85.3508 60.9017 86.2405 62.0002 86.2405C63.0987 86.2405 63.9895 85.3508 63.9895 84.2513V81.1178C66.835 80.2563 68.9257 77.6393 68.9257 74.5145C68.9257 70.8853 66.1345 67.6313 62.0545 67.591C60.2135 67.5505 59.053 66.1733 59.053 64.646C59.053 63.0243 60.3682 61.7053 61.9872 61.6983Z" fill="url(#paint5_linear_1360_268)"/>
<defs>
<linearGradient id="paint0_linear_1360_268" x1="113.694" y1="7.0125" x2="2.80317" y2="112.407" gradientUnits="userSpaceOnUse">
<stop stop-color="#DA3276"/>
<stop offset="1" stop-color="#ED722E"/>
</linearGradient>
<linearGradient id="paint1_linear_1360_268" x1="18.4194" y1="11.6683" x2="15.7104" y2="17.3073" gradientUnits="userSpaceOnUse">
<stop stop-color="#DA3276"/>
<stop offset="1" stop-color="#ED722E"/>
</linearGradient>
<linearGradient id="paint2_linear_1360_268" x1="29.1359" y1="11.6683" x2="26.4269" y2="17.3073" gradientUnits="userSpaceOnUse">
<stop stop-color="#DA3276"/>
<stop offset="1" stop-color="#ED722E"/>
</linearGradient>
<linearGradient id="paint3_linear_1360_268" x1="39.8536" y1="11.6683" x2="37.1447" y2="17.3076" gradientUnits="userSpaceOnUse">
<stop stop-color="#DA3276"/>
<stop offset="1" stop-color="#ED722E"/>
</linearGradient>
<linearGradient id="paint4_linear_1360_268" x1="83.4617" y1="46.6404" x2="38.7636" y2="90.4437" gradientUnits="userSpaceOnUse">
<stop stop-color="#DA3276"/>
<stop offset="1" stop-color="#ED722E"/>
</linearGradient>
<linearGradient id="paint5_linear_1360_268" x1="67.8" y1="54.6744" x2="47.4923" y2="62.9503" gradientUnits="userSpaceOnUse">
<stop stop-color="#DA3276"/>
<stop offset="1" stop-color="#ED722E"/>
</linearGradient>
</defs>
</svg>
