<svg width="128" height="128" viewBox="0 0 128 128" fill="none" xmlns="http://www.w3.org/2000/svg">
<g clip-path="url(#clip0_1361_324)">
<path d="M60.2325 91.2476C59.575 91.2476 58.93 91.5148 58.465 91.9801C58.0003 92.4451 57.7325 93.0876 57.7325 93.7476C57.7325 94.4051 58 95.0501 58.465 95.5148C58.93 95.9798 59.575 96.2476 60.2325 96.2476C60.89 96.2476 61.535 95.9801 62 95.5148C62.4648 95.0473 62.7325 94.4051 62.7325 93.7476C62.7325 93.0873 62.465 92.4451 62 91.9801C61.535 91.5151 60.89 91.2476 60.2325 91.2476Z" fill="url(#paint0_linear_1361_324)"/>
<path d="M107.943 83.78C107.283 83.78 106.638 84.0473 106.173 84.5125C105.708 84.9775 105.443 85.62 105.443 86.28C105.443 86.9375 105.708 87.5825 106.173 88.0473C106.638 88.5123 107.283 88.78 107.943 88.78C108.6 88.78 109.243 88.5125 109.71 88.0473C110.175 87.5798 110.443 86.9375 110.443 86.28C110.443 85.6225 110.175 84.9775 109.71 84.5125C109.243 84.0473 108.6 83.78 107.943 83.78Z" fill="url(#paint1_linear_1361_324)"/>
<path d="M33.9847 71.75C33.3272 71.75 32.6822 72.0172 32.2175 72.4825C31.7525 72.9475 31.4847 73.5925 31.4847 74.25C31.4847 74.9075 31.7522 75.5525 32.2175 76.0173C32.6822 76.4823 33.3272 76.75 33.9847 76.75C34.6422 76.75 35.2872 76.4825 35.7522 76.0173C36.2172 75.5525 36.4847 74.9075 36.4847 74.25C36.4847 73.5925 36.2175 72.9475 35.7522 72.4825C35.287 72.0175 34.6422 71.75 33.9847 71.75Z" fill="url(#paint2_linear_1361_324)"/>
<path d="M128 27.1343C128 25.7535 126.88 24.6343 125.5 24.6343H121.65C121.124 22.8785 120.423 21.185 119.554 19.5705L122.275 16.8487C123.252 15.8725 123.252 14.2895 122.275 13.3132L114.687 5.725C113.71 4.74875 112.128 4.74875 111.151 5.725L108.429 8.4465C106.815 7.577 105.122 6.876 103.366 6.35V2.5C103.366 1.1195 102.246 0 100.866 0H90.134C88.7535 0 87.634 1.11925 87.634 2.5V6.35925C85.8818 6.88625 84.192 7.58775 82.581 8.457L79.8487 5.72475C78.8722 4.7485 77.2898 4.7485 76.313 5.72475L68.7245 13.3132C68.1295 13.9085 67.8993 14.7288 68.0295 15.4998H10.0083C4.48975 15.5 0 19.9897 0 25.5085V94.4918C0 100.01 4.48975 104.5 10.0083 104.5H49.732V113H43.741C38.7735 113 34.732 117.042 34.732 122.009V125.5C34.732 126.881 35.8515 128 37.232 128H83.232C84.6125 128 85.732 126.881 85.732 125.5V122.009C85.732 117.042 81.6908 113 76.7233 113H70.732V104.5H110.433C115.952 104.5 120.441 100.01 120.441 94.4918V53.5202L122.275 51.6865C122.744 51.2178 123.007 50.5817 123.007 49.9188C123.007 49.2558 122.744 48.6198 122.275 48.151L119.543 45.419C120.412 43.8077 121.114 42.1183 121.641 40.366H125.5C126.163 40.366 126.799 40.1025 127.268 39.6338C127.737 39.165 128 38.529 128 37.866L128 27.1343ZM80.732 122.009V123H39.732V122.009C39.732 119.798 41.5303 118 43.741 118H76.7233C78.9335 118 80.732 119.798 80.732 122.009ZM65.732 113H54.732V104.5H65.732V113ZM115.441 94.4918C115.441 97.2533 113.195 99.5 110.433 99.5H10.0083C7.24675 99.5 5 97.2533 5 94.4918V88.7793H97.9427C99.3232 88.7793 100.443 87.6598 100.443 86.2793C100.443 84.8988 99.3232 83.7793 97.9427 83.7793H5V76.75H24.0833C25.4638 76.75 26.5833 75.6305 26.5833 74.25C26.5833 72.8695 25.4638 71.75 24.0833 71.75H5V25.5085C5 22.7467 7.24675 20.5 10.0083 20.5H71.0023C70.35 21.8318 69.807 23.2122 69.381 24.6343H65.5003C64.8372 24.6343 64.2012 24.8978 63.7325 25.3665C63.2637 25.8353 63 26.4713 63 27.1343L63.0003 37.8657C63.0003 39.2465 64.1198 40.3657 65.5003 40.3657H69.3903C69.9153 42.1105 70.6133 43.7932 71.4775 45.3985L68.725 48.1512C67.7487 49.1275 67.7487 50.7105 68.725 51.6867L76.3135 59.275C77.29 60.2513 78.8725 60.2513 79.8493 59.275L82.6018 56.5225C84.207 57.387 85.89 58.085 87.6345 58.6097L87.6342 62.5C87.6342 63.8805 88.7537 65 90.1342 65L100.866 64.9997C102.246 64.9997 103.366 63.8805 103.366 62.4997V58.6188C105.114 58.0953 106.801 57.3977 108.41 56.5332L111.151 59.275C111.62 59.7438 112.256 60.0073 112.919 60.0073C113.582 60.0073 114.218 59.7438 114.687 59.275L115.441 58.5202V94.4918ZM123 35.3657H119.711C118.538 35.3657 117.524 36.1805 117.27 37.3252C116.707 39.8685 115.709 42.2725 114.304 44.4697C113.671 45.457 113.809 46.7557 114.641 47.5877L116.972 49.919L112.919 53.9717L110.581 51.6335C109.819 50.8727 108.657 50.6838 107.694 51.165C107.617 51.2035 107.541 51.2463 107.469 51.2925C105.272 52.6922 102.869 53.6852 100.328 54.2448C99.1823 54.497 98.3658 55.5125 98.3658 56.6862V60H92.634V56.6797C92.634 55.5072 91.8193 54.4923 90.6745 54.2388C88.1375 53.677 85.7385 52.682 83.5445 51.2817C83.143 51.0252 82.676 50.889 82.1995 50.889C81.5365 50.889 80.9 51.1527 80.431 51.6215L78.081 53.9717L74.0283 49.9188L76.3783 47.5687C77.2103 46.7367 77.3483 45.4383 76.7155 44.451C75.3165 42.2583 74.3228 39.861 73.7613 37.3252C73.5078 36.1805 72.4928 35.3657 71.3203 35.3657H68L68.0003 29.6343H71.3135C72.487 29.6343 73.5027 28.8177 73.7552 27.6715C74.3138 25.1332 75.3057 22.7332 76.7038 20.537C77.3363 19.55 77.1985 18.2513 76.3665 17.4195L74.028 15.081L78.081 11.0282L80.412 13.3593C81.2692 14.2163 82.5942 14.3205 83.5652 13.6737C85.7527 12.2808 88.1442 11.2905 90.6745 10.7305C91.819 10.477 92.634 9.462 92.634 8.28975L92.6342 5H98.366V8.2825C98.366 9.456 99.1825 10.4718 100.329 10.724C102.877 11.285 105.285 12.2818 107.486 13.687C107.56 13.734 107.635 13.7768 107.713 13.8158C108.675 14.2968 109.839 14.1082 110.6 13.3472L112.919 11.028L116.972 15.081L114.653 17.4C114.536 17.5165 114.432 17.644 114.34 17.781C113.789 18.6085 113.781 19.6835 114.316 20.5182C115.72 22.7185 116.716 25.125 117.276 27.671C117.528 28.8172 118.543 29.6338 119.717 29.6338H123V35.3657H123Z" fill="url(#paint3_linear_1361_324)"/>
<path d="M95.5 17C86.9532 17 80 23.9532 80 32.5C80 41.0467 86.9532 48 95.5 48C104.047 48 111 41.0467 111 32.5C111 23.9532 104.047 17 95.5 17ZM95.5 43C89.7102 43 85 38.2897 85 32.5C85 26.7102 89.7102 22 95.5 22C101.29 22 106 26.7102 106 32.5C106 38.2897 101.29 43 95.5 43Z" fill="url(#paint4_linear_1361_324)"/>
<path d="M40.9175 46.8051C40.2572 46.8051 39.615 47.0726 39.15 47.5376C38.6825 48.0026 38.4175 48.6476 38.4175 49.3076C38.4175 49.9651 38.6825 50.6101 39.15 51.0751C39.615 51.5401 40.2575 51.8051 40.9175 51.8051C41.575 51.8051 42.22 51.5401 42.685 51.0751C43.1497 50.6101 43.4175 49.9651 43.4175 49.3076C43.4175 48.6476 43.15 48.0026 42.685 47.5376C42.22 47.0726 41.575 46.8051 40.9175 46.8051Z" fill="url(#paint5_linear_1361_324)"/>
<path d="M60.4298 44.9555C60.6016 44.315 60.5116 43.6327 60.1801 43.0585L55.9588 35.7475C55.2686 34.552 53.7396 34.142 52.5438 34.8325L50.1393 36.2207C49.3496 35.6622 48.5141 35.179 47.6378 34.7743V32C47.6378 30.6193 46.5183 29.5 45.1378 29.5H36.6956C35.3151 29.5 34.1956 30.6193 34.1956 32V34.7743C33.3193 35.1793 32.4838 35.6622 31.6941 36.2207L29.2896 34.8325C28.7153 34.501 28.0328 34.4115 27.3926 34.5827C26.7518 34.7545 26.2061 35.1733 25.8746 35.7475L21.6536 43.0585C20.9631 44.2542 21.3728 45.783 22.5686 46.4735L24.9741 47.8625C24.9311 48.342 24.9093 48.8242 24.9093 49.306C24.9093 49.7878 24.9311 50.27 24.9741 50.7495L22.5686 52.1385C21.3728 52.8288 20.9631 54.3578 21.6536 55.5535L25.8746 62.8645C26.2061 63.4387 26.7521 63.8577 27.3926 64.0293C28.0328 64.2008 28.7153 64.1112 29.2896 63.7795L31.6941 62.3913C32.4838 62.9497 33.3193 63.433 34.1956 63.8377V66.612C34.1956 67.9925 35.3151 69.112 36.6956 69.112H45.1378C46.5183 69.112 47.6378 67.9925 47.6378 66.612V63.8377C48.5141 63.4328 49.3496 62.9497 50.1393 62.3913L52.5438 63.7795C53.7398 64.4697 55.2683 64.0602 55.9588 62.8645L60.1801 55.5535C60.5116 54.9793 60.6016 54.297 60.4298 53.6565C60.2581 53.016 59.8393 52.47 59.2651 52.1385L56.8593 50.75C56.9026 50.2703 56.9243 49.788 56.9243 49.3065C56.9243 48.825 56.9026 48.3428 56.8593 47.8628L59.2651 46.4738C59.8391 46.142 60.2581 45.596 60.4298 44.9555ZM51.6933 47.0532C51.8463 47.7907 51.9241 48.5488 51.9241 49.3063C51.9241 50.0638 51.8463 50.8218 51.6933 51.5592C51.4741 52.6155 51.9571 53.6932 52.8911 54.2325L54.5998 55.219L52.8786 58.2L51.1671 57.212C50.2323 56.6723 49.0558 56.7935 48.2506 57.5137C47.1106 58.5332 45.8006 59.2908 44.3568 59.7653C43.3308 60.1025 42.6376 61.0603 42.6376 62.1403V64.1127H39.1953V62.1403C39.1953 61.0603 38.5021 60.1025 37.4761 59.7653C36.0323 59.2908 34.7221 58.533 33.5823 57.5137C32.7773 56.7935 31.6011 56.672 30.6658 57.212L28.9543 58.2L27.2333 55.219L28.9418 54.2325C29.8758 53.6932 30.3588 52.6155 30.1396 51.5592C29.9868 50.8225 29.9091 50.0645 29.9091 49.3063C29.9091 48.548 29.9868 47.7902 30.1396 47.0532C30.3588 45.997 29.8761 44.9195 28.9418 44.38L27.2333 43.3935L28.9543 40.4128L30.6658 41.4007C31.6006 41.9407 32.7771 41.8192 33.5823 41.099C34.7223 40.0795 36.0323 39.322 37.4761 38.8475C38.5021 38.5103 39.1953 37.5525 39.1953 36.4725V34.5H42.6376V36.4725C42.6376 37.5525 43.3308 38.5103 44.3568 38.8475C45.8006 39.322 47.1108 40.0797 48.2506 41.099C49.0553 41.8187 50.2316 41.9405 51.1671 41.4007L52.8786 40.4125L54.5998 43.3935L52.8911 44.38C51.9571 44.9195 51.4741 45.9972 51.6933 47.0532Z" fill="url(#paint6_linear_1361_324)"/>
<path d="M95.4935 28.4743C95.4958 28.4743 95.4978 28.4756 95.4999 28.4756C95.5033 28.4756 95.5063 28.4737 95.5097 28.4735H97.9946C98.5502 28.4735 98.9999 28.0194 98.9999 27.4583C98.9999 26.8971 98.5502 26.443 97.9946 26.443H96.5052V25.0153C96.5052 24.4541 96.0551 24 95.4999 24C94.9448 24 94.4946 24.4541 94.4946 25.0153V26.6094C93.0565 27.0491 92 28.3846 92 29.9786C92 31.8018 93.3721 33.4216 95.4196 33.4991C96.502 33.5904 96.9894 34.2274 96.9894 35.0174C96.9894 35.8463 96.3213 36.5215 95.5001 36.5215H93.0054C92.4503 36.5215 92.0001 36.9756 92.0001 37.5367C92.0001 38.0979 92.4503 38.552 93.0054 38.552H94.4948V39.9847C94.4948 40.5459 94.9449 41 95.5001 41C96.0552 41 96.5054 40.5459 96.5054 39.9847V38.3855C97.9434 37.9458 99 36.6102 99 35.0154C99 33.1631 97.5894 31.5024 95.5275 31.4818C94.5971 31.4611 94.0106 30.7582 94.0106 29.9788C94.0106 29.1511 94.6753 28.4779 95.4935 28.4743Z" fill="url(#paint7_linear_1361_324)"/>
</g>
<defs>
<linearGradient id="paint0_linear_1361_324" x1="62.3262" y1="91.5092" x2="57.9658" y2="95.7823" gradientUnits="userSpaceOnUse">
<stop stop-color="#DA3276"/>
<stop offset="1" stop-color="#ED722E"/>
</linearGradient>
<linearGradient id="paint1_linear_1361_324" x1="110.036" y1="84.0417" x2="105.676" y2="88.3148" gradientUnits="userSpaceOnUse">
<stop stop-color="#DA3276"/>
<stop offset="1" stop-color="#ED722E"/>
</linearGradient>
<linearGradient id="paint2_linear_1361_324" x1="36.0784" y1="72.0116" x2="31.718" y2="76.2848" gradientUnits="userSpaceOnUse">
<stop stop-color="#DA3276"/>
<stop offset="1" stop-color="#ED722E"/>
</linearGradient>
<linearGradient id="paint3_linear_1361_324" x1="117.597" y1="6.69752" x2="5.97134" y2="116.091" gradientUnits="userSpaceOnUse">
<stop stop-color="#DA3276"/>
<stop offset="1" stop-color="#ED722E"/>
</linearGradient>
<linearGradient id="paint4_linear_1361_324" x1="108.48" y1="18.6221" x2="81.4461" y2="45.1157" gradientUnits="userSpaceOnUse">
<stop stop-color="#DA3276"/>
<stop offset="1" stop-color="#ED722E"/>
</linearGradient>
<linearGradient id="paint5_linear_1361_324" x1="43.0111" y1="47.0667" x2="38.6507" y2="51.3398" gradientUnits="userSpaceOnUse">
<stop stop-color="#DA3276"/>
<stop offset="1" stop-color="#ED722E"/>
</linearGradient>
<linearGradient id="paint6_linear_1361_324" x1="57.3293" y1="31.5727" x2="22.7939" y2="65.0627" gradientUnits="userSpaceOnUse">
<stop stop-color="#DA3276"/>
<stop offset="1" stop-color="#ED722E"/>
</linearGradient>
<linearGradient id="paint7_linear_1361_324" x1="98.4311" y1="24.8895" x2="88.1396" y2="29.0424" gradientUnits="userSpaceOnUse">
<stop stop-color="#DA3276"/>
<stop offset="1" stop-color="#ED722E"/>
</linearGradient>
<clipPath id="clip0_1361_324">
<rect width="128" height="128" fill="white"/>
</clipPath>
</defs>
</svg>
