<svg width="110" height="128" viewBox="0 0 110 128" fill="none" xmlns="http://www.w3.org/2000/svg">
<path fill-rule="evenodd" clip-rule="evenodd" d="M91.6874 123.423C89.6796 123.423 89.9749 121.179 89.9749 119.969C85.5458 118.669 84.2761 112.498 87.3765 112.498C88.3214 112.498 89.0891 113.266 89.0891 114.211C89.0891 117.636 94.2858 117.636 94.2858 114.211C94.2858 112.38 93.5477 112.114 91.2741 111.553C89.1776 111.081 85.6935 110.225 85.6935 105.618C85.6935 102.902 87.4946 100.599 89.9749 99.8607C89.9749 98.6205 89.6796 96.406 91.6874 96.406C93.6953 96.406 93.3705 98.6205 93.3705 99.8607C97.7996 101.16 99.0988 107.302 95.9689 107.302C95.0535 107.302 94.2858 106.563 94.2858 105.618C94.2858 102.193 89.0891 102.193 89.0891 105.618C89.0891 107.449 89.7977 107.715 92.0713 108.246C94.1677 108.748 97.6814 109.575 97.6814 114.211C97.6814 116.927 95.8803 119.23 93.3705 119.969C93.3705 121.179 93.6953 123.423 91.6874 123.423ZM49.6704 71.1603C46.3338 71.1603 43.1449 70.4812 40.2217 69.2706L38.1843 76.9181L49.6704 90.0577L61.186 76.9181L59.1191 69.2706C56.2254 70.4812 53.0069 71.1603 49.6704 71.1603ZM37.1214 67.7057C29.8577 63.3947 24.9857 55.4814 24.9857 46.4461V40.895C20.6157 27.9622 26.7869 14.7931 34.9068 7.4113C42.7906 0.236218 52.1802 -1.88973 60.0049 1.71257C61.2745 2.30311 61.3631 4.07474 60.123 4.75386C59.8277 4.93103 59.2372 5.31488 58.6466 5.81684C63.7843 6.40738 68.0953 8.97624 71.2842 13.3758C76.4515 20.5804 77.7507 32.1255 74.3846 40.9541V46.4461C74.3846 55.4814 69.4831 63.3947 62.2194 67.7057L64.3749 75.6484H71.7271C81.8549 75.6484 91.3036 82.1739 95.9984 92.3313C103.912 94.2801 109.758 101.426 109.758 109.9C109.758 119.88 101.668 128 91.6874 128C85.0143 128 79.168 124.368 76.0086 118.965H1.92505C0.980182 118.965 0.242004 118.197 0.242004 117.252V106.681C0.242004 89.5852 12.5253 75.6484 27.6136 75.6484H34.9954L37.1214 67.7057ZM28.3813 40.8065V46.4461C28.3813 58.3456 38.0958 67.7352 49.6704 67.7352C61.245 67.7352 70.9594 58.3751 70.9594 46.4461V41.7513C68.4791 40.5407 62.8395 36.8498 61.3631 27.6669C47.4263 36.0526 37.2985 27.4602 32.6923 30.6196C30.8321 31.8893 29.4443 35.2258 28.3813 40.8065ZM26.964 33.0999C29.9167 25.8067 34.2868 25.9248 40.8418 27.1945C46.3338 28.2279 53.1546 29.5271 61.7765 23.2969C62.8395 22.5292 64.3749 23.2674 64.4635 24.5961C64.9359 33.1589 69.3354 36.8794 71.6976 38.2671C75.2113 26.6925 70.7527 8.3857 55.251 9.09435C53.4498 9.18293 52.2392 7.11603 55.7234 3.83852C41.8457 0.561016 26.2849 17.0371 26.964 33.0999ZM88.0261 95.6973C81.2349 97.4395 76.5105 103.817 77.042 111.051C77.603 118.463 83.8628 124.604 91.6874 124.604C99.7779 124.604 106.362 117.99 106.362 109.9C106.362 101.012 99.0102 95.0478 90.9197 95.2544L88.0261 95.6973ZM3.63762 115.54H19.346V94.8706C19.346 92.6265 22.7417 92.6265 22.7417 94.8706V115.54H74.4731C70.7823 104.319 78.8727 91.8293 91.9237 91.8293C87.5241 83.9751 79.8766 79.0736 71.7271 79.0736H63.8139L50.9696 93.7486C50.32 94.4867 49.0503 94.4867 48.4007 93.7486L35.5269 79.0736H27.6136C14.3855 79.0736 3.63762 91.4454 3.63762 106.681V115.54Z" fill="url(#paint0_linear_1360_302)"/>
<defs>
<linearGradient id="paint0_linear_1360_302" x1="100.857" y1="6.68977" x2="-9.08683" y2="98.8698" gradientUnits="userSpaceOnUse">
<stop stop-color="#DA3276"/>
<stop offset="1" stop-color="#ED722E"/>
</linearGradient>
</defs>
</svg>
