<svg width="124" height="124" viewBox="0 0 124 124" fill="none" xmlns="http://www.w3.org/2000/svg">
<path d="M116 39.846L121.798 34.822C123.198 33.61 124 31.852 124 30C124 28.148 123.198 26.39 121.798 25.178L115.98 20.136C100.998 7.152 81.826 0 62 0C42.174 0 23.002 7.152 8.02 20.136L2.202 25.178C0.802 26.39 0 28.148 0 30C0 31.852 0.802 33.61 2.202 34.822L8 39.846V104H0V114C0 119.514 4.486 124 10 124H114C119.514 124 124 119.514 124 114V104H116V39.846ZM113.362 23.16L119.18 28.202C119.7 28.654 120 29.308 120 30C120 30.692 119.7 31.346 119.178 31.798L113.36 36.84C103.742 45.174 92.31 50.972 80.098 53.87C87.314 48.386 92 39.74 92 30C92 20.26 87.314 11.614 80.098 6.13C92.31 9.028 103.744 14.826 113.362 23.16ZM32 70V66C32 64.896 32.898 64 34 64H36V68H40V64H44V68H48V64H52V68H56V64H58C59.102 64 60 64.896 60 66V70C60 71.104 59.102 72 58 72H34C32.898 72 32 71.104 32 70ZM72 80V76H76V80H80V76H84V80H88V76H90C91.102 76 92 76.896 92 78V82C92 83.104 91.102 84 90 84H66C64.898 84 64 83.104 64 82V78C64 76.896 64.898 76 66 76H68V80H72ZM34 84C32.898 84 32 83.104 32 82V78C32 76.896 32.898 76 34 76H36V80H40V76H44V80H48V76H52V80H56V76H58C59.102 76 60 76.896 60 78V82C60 83.104 59.102 84 58 84H34ZM32 94V90C32 88.896 32.898 88 34 88H36V92H40V88H44V92H48V88H52V92H56V88H58C59.102 88 60 88.896 60 90V94C60 95.104 59.102 96 58 96H34C32.898 96 32 95.104 32 94ZM64 94V90C64 88.896 64.898 88 66 88H68V92H72V88H76V92H80V88H84V92H88V88H90C91.102 88 92 88.896 92 90V94C92 95.104 91.102 96 90 96H66C64.898 96 64 95.104 64 94ZM94.44 86C95.4 84.936 96 83.542 96 82V78C96 74.692 93.308 72 90 72H66C65.05 72 64.162 72.242 63.362 72.638C63.758 71.838 64 70.95 64 70V66C64 62.692 61.308 60 58 60H34C30.692 60 28 62.692 28 66V70C28 71.542 28.602 72.936 29.56 74C28.6 75.064 28 76.458 28 78V82C28 83.542 28.602 84.936 29.56 86C28.6 87.064 28 88.458 28 90V94C28 94.704 28.144 95.372 28.368 96H20V48.494C32.64 55.98 47.136 60 62 60C76.864 60 91.36 55.98 104 48.494V96H95.632C95.856 95.372 96 94.704 96 94V90C96 88.458 95.398 87.064 94.44 86ZM62 56C47.664 56 36 44.336 36 30C36 15.664 47.664 4 62 4C76.336 4 88 15.664 88 30C88 44.336 76.336 56 62 56ZM4 30C4 29.308 4.3 28.654 4.822 28.202L10.64 23.16C20.258 14.826 31.69 9.028 43.902 6.13C36.686 11.614 32 20.26 32 30C32 39.74 36.686 48.386 43.902 53.87C31.69 50.972 20.256 45.176 10.64 36.84L4.822 31.798C4.3 31.346 4 30.692 4 30ZM12 43.076C13.308 44.074 14.64 45.032 16 45.948V96C16 98.206 17.794 100 20 100H34H58H66H90H104C106.206 100 108 98.206 108 96V45.948C109.36 45.034 110.692 44.074 112 43.076V104H12V43.076ZM120 114C120 117.308 117.308 120 114 120H10C6.692 120 4 117.308 4 114V108H120V114Z" fill="url(#paint0_linear_1360_294)"/>
<path d="M14 116C15.1046 116 16 115.105 16 114C16 112.895 15.1046 112 14 112C12.8954 112 12 112.895 12 114C12 115.105 12.8954 116 14 116Z" fill="url(#paint1_linear_1360_294)"/>
<path d="M22 116C23.1046 116 24 115.105 24 114C24 112.895 23.1046 112 22 112C20.8954 112 20 112.895 20 114C20 115.105 20.8954 116 22 116Z" fill="url(#paint2_linear_1360_294)"/>
<path d="M30 116C31.1046 116 32 115.105 32 114C32 112.895 31.1046 112 30 112C28.8954 112 28 112.895 28 114C28 115.105 28.8954 116 30 116Z" fill="url(#paint3_linear_1360_294)"/>
<path d="M62 8C49.87 8 40 17.87 40 30C40 42.13 49.87 52 62 52C74.13 52 84 42.13 84 30C84 17.87 74.13 8 62 8ZM62 48C52.076 48 44 39.926 44 30C44 20.074 52.076 12 62 12C71.924 12 80 20.074 80 30C80 39.926 71.924 48 62 48Z" fill="url(#paint4_linear_1360_294)"/>
<defs>
<linearGradient id="paint0_linear_1360_294" x1="113.922" y1="6.48822" x2="5.78452" y2="112.463" gradientUnits="userSpaceOnUse">
<stop stop-color="#DA3276"/>
<stop offset="1" stop-color="#ED722E"/>
</linearGradient>
<linearGradient id="paint1_linear_1360_294" x1="15.6749" y1="112.209" x2="12.1866" y2="115.628" gradientUnits="userSpaceOnUse">
<stop stop-color="#DA3276"/>
<stop offset="1" stop-color="#ED722E"/>
</linearGradient>
<linearGradient id="paint2_linear_1360_294" x1="23.6749" y1="112.209" x2="20.1866" y2="115.628" gradientUnits="userSpaceOnUse">
<stop stop-color="#DA3276"/>
<stop offset="1" stop-color="#ED722E"/>
</linearGradient>
<linearGradient id="paint3_linear_1360_294" x1="31.6749" y1="112.209" x2="28.1866" y2="115.628" gradientUnits="userSpaceOnUse">
<stop stop-color="#DA3276"/>
<stop offset="1" stop-color="#ED722E"/>
</linearGradient>
<linearGradient id="paint4_linear_1360_294" x1="80.4238" y1="10.3023" x2="42.0526" y2="47.9061" gradientUnits="userSpaceOnUse">
<stop stop-color="#DA3276"/>
<stop offset="1" stop-color="#ED722E"/>
</linearGradient>
</defs>
</svg>
