<svg width="128" height="128" viewBox="0 0 128 128" fill="none" xmlns="http://www.w3.org/2000/svg">
<g clip-path="url(#clip0_1361_338)">
<path d="M32 10.6667H34.1333C35.3115 10.6667 36.2667 9.71149 36.2667 8.53336C36.2667 7.35522 35.3115 6.40002 34.1333 6.40002H32C30.8219 6.40002 29.8667 7.35522 29.8667 8.53336C29.8667 9.71149 30.8219 10.6667 32 10.6667Z" fill="url(#paint0_linear_1361_338)"/>
<path d="M42.6667 10.6667H44.8C45.9781 10.6667 46.9333 9.71149 46.9333 8.53336C46.9333 7.35522 45.9781 6.40002 44.8 6.40002H42.6667C41.4885 6.40002 40.5333 7.35522 40.5333 8.53336C40.5333 9.71149 41.4885 10.6667 42.6667 10.6667Z" fill="url(#paint1_linear_1361_338)"/>
<path d="M125.867 21.3333H76.8V10.6667C76.8 4.77573 72.0243 0 66.1333 0H10.6667C4.77573 0 0 4.77573 0 10.6667V106.667C0 112.558 4.77573 117.333 10.6667 117.333H51.2V125.867C51.2 127.045 52.1552 128 53.3333 128H96C97.1781 128 98.1333 127.045 98.1333 125.867V113.067C98.1333 111.889 97.1781 110.933 96 110.933H93.8667V110.101C93.8685 109.676 93.9947 109.261 94.2293 108.907L95.616 106.816C97.2576 104.36 98.1336 101.472 98.1333 98.5173V76.8H125.867C127.045 76.8 128 75.8448 128 74.6667V23.4667C128 22.2885 127.045 21.3333 125.867 21.3333ZM4.26667 10.6667C4.27733 7.13653 7.13653 4.27733 10.6667 4.26667H66.1333C69.6635 4.27733 72.5227 7.13653 72.5333 10.6667V12.8H4.26667V10.6667ZM4.26667 17.0667H72.5333V21.3333H66.1333C64.9552 21.3333 64 22.2885 64 23.4667V47.3387C61.4248 48.3309 59.728 50.8083 59.7333 53.568V72.5333H57.6C54.0699 72.544 51.2107 75.4032 51.2 78.9333V96H4.26667V17.0667ZM51.2 113.067H10.6667C7.13653 113.056 4.27733 110.197 4.26667 106.667V100.267H51.328C51.5971 102.607 52.4157 104.852 53.7173 106.816L55.104 108.907C55.3387 109.261 55.4648 109.676 55.4667 110.101V110.933H53.3333C52.1552 110.933 51.2 111.889 51.2 113.067ZM93.8667 123.733H55.4667V115.2H93.8667V123.733ZM93.8667 98.5173C93.8672 100.628 93.2437 102.691 92.0747 104.448L90.6667 106.539C89.9664 107.594 89.5952 108.834 89.6 110.101V110.933H59.7333V110.101C59.7381 108.834 59.3669 107.594 58.6667 106.539L57.2587 104.448C56.0896 102.691 55.4661 100.628 55.4667 98.5173V78.9333C55.4667 77.7552 56.4219 76.8 57.6 76.8H59.7333V87.4667C59.7333 88.6448 60.6885 89.6 61.8667 89.6C63.0448 89.6 64 88.6448 64 87.4667V53.568C63.9645 52.4045 64.7936 51.3936 65.9413 51.2C66.5813 51.148 67.2101 51.3917 67.648 51.8613C68.0517 52.2435 68.2763 52.7776 68.2667 53.3333V78.9333C68.2667 80.1115 69.2219 81.0667 70.4 81.0667C71.5781 81.0667 72.5333 80.1115 72.5333 78.9333V68.2667C72.5333 67.0885 73.4885 66.1333 74.6667 66.1333C75.2427 66.1283 75.7936 66.3688 76.1813 66.7947C76.5851 67.1768 76.8096 67.7109 76.8 68.2667V78.9333C76.8 80.1115 77.7552 81.0667 78.9333 81.0667C80.1115 81.0667 81.0667 80.1115 81.0667 78.9333V70.4C81.0667 69.2219 82.0219 68.2667 83.2 68.2667C83.776 68.2616 84.3269 68.5021 84.7147 68.928C85.1184 69.3101 85.3429 69.8443 85.3333 70.4V78.9333C85.3333 80.1115 86.2885 81.0667 87.4667 81.0667C88.6448 81.0667 89.6 80.1115 89.6 78.9333V74.6667C89.6 73.4885 90.5552 72.5333 91.7333 72.5333C92.3093 72.5283 92.8603 72.7688 93.248 73.1947C93.6517 73.5768 93.8763 74.1109 93.8667 74.6667V98.5173ZM123.733 72.5333H97.7493C97.4405 71.6445 96.9376 70.8357 96.2773 70.1653C94.4603 68.3787 91.7699 67.8123 89.3867 68.7147C89.0968 67.6477 88.5301 66.6763 87.744 65.8987C85.6875 63.9128 82.584 63.4816 80.064 64.832C79.8221 64.4443 79.5357 64.0864 79.2107 63.7653C77.4525 62.0352 74.8707 61.4413 72.5333 62.2293V53.3333C72.5427 51.6448 71.8741 50.0232 70.6773 48.832C69.9955 48.1552 69.1723 47.6379 68.2667 47.3173V25.6H123.733V72.5333Z" fill="url(#paint2_linear_1361_338)"/>
<path d="M17.0667 66.1333H14.9333C13.7552 66.1333 12.8 67.0885 12.8 68.2666C12.8 69.4448 13.7552 70.4 14.9333 70.4H17.0667C18.2448 70.4 19.2 69.4448 19.2 68.2666C19.2 67.0885 18.2448 66.1333 17.0667 66.1333Z" fill="url(#paint3_linear_1361_338)"/>
<path d="M46.9333 66.1333H25.6C24.4219 66.1333 23.4667 67.0885 23.4667 68.2666C23.4667 69.4448 24.4219 70.4 25.6 70.4H46.9333C48.1115 70.4 49.0667 69.4448 49.0667 68.2666C49.0667 67.0885 48.1115 66.1333 46.9333 66.1333Z" fill="url(#paint4_linear_1361_338)"/>
<path d="M17.0667 74.6666H14.9333C13.7552 74.6666 12.8 75.6218 12.8 76.8C12.8 77.9781 13.7552 78.9333 14.9333 78.9333H17.0667C18.2448 78.9333 19.2 77.9781 19.2 76.8C19.2 75.6218 18.2448 74.6666 17.0667 74.6666Z" fill="url(#paint5_linear_1361_338)"/>
<path d="M42.6667 74.6666H25.6C24.4219 74.6666 23.4667 75.6218 23.4667 76.8C23.4667 77.9781 24.4219 78.9333 25.6 78.9333H42.6667C43.8448 78.9333 44.8 77.9781 44.8 76.8C44.8 75.6218 43.8448 74.6666 42.6667 74.6666Z" fill="url(#paint6_linear_1361_338)"/>
<path d="M17.0667 83.2H14.9333C13.7552 83.2 12.8 84.1552 12.8 85.3333C12.8 86.5114 13.7552 87.4666 14.9333 87.4666H17.0667C18.2448 87.4666 19.2 86.5114 19.2 85.3333C19.2 84.1552 18.2448 83.2 17.0667 83.2Z" fill="url(#paint7_linear_1361_338)"/>
<path d="M42.6667 83.2H25.6C24.4219 83.2 23.4667 84.1552 23.4667 85.3333C23.4667 86.5114 24.4219 87.4666 25.6 87.4666H42.6667C43.8448 87.4666 44.8 86.5114 44.8 85.3333C44.8 84.1552 43.8448 83.2 42.6667 83.2Z" fill="url(#paint8_linear_1361_338)"/>
<path d="M91.7333 61.8667C94.0898 61.8667 96 59.9565 96 57.6C96 55.2436 94.0898 53.3334 91.7333 53.3334C89.3769 53.3334 87.4667 55.2436 87.4667 57.6C87.4667 59.9565 89.3769 61.8667 91.7333 61.8667Z" fill="url(#paint9_linear_1361_338)"/>
<path d="M102.4 61.8667C104.756 61.8667 106.667 59.9565 106.667 57.6C106.667 55.2436 104.756 53.3334 102.4 53.3334C100.044 53.3334 98.1333 55.2436 98.1333 57.6C98.1333 59.9565 100.044 61.8667 102.4 61.8667Z" fill="url(#paint10_linear_1361_338)"/>
<path d="M83.2 36.2667H85.5829L85.8795 38.6368V38.6987L87.4752 51.4645C87.6091 52.5352 88.5211 53.3373 89.6 53.3333H104.533C105.452 53.3336 106.267 52.7456 106.558 51.8741L110.825 39.0741C111.197 37.9563 110.593 36.7483 109.475 36.376C109.257 36.3035 109.029 36.2667 108.8 36.2667H89.8837L89.5829 33.8688C89.4496 32.8013 88.5424 32.0003 87.4667 32H83.2C82.0219 32 81.0667 32.9552 81.0667 34.1333C81.0667 35.3115 82.0219 36.2667 83.2 36.2667ZM105.841 40.5333L102.995 49.0667H91.4752L90.4085 40.5333H105.841Z" fill="url(#paint11_linear_1361_338)"/>
<path d="M42.6667 104.533H34.1333C32.9552 104.533 32 105.489 32 106.667C32 107.845 32.9552 108.8 34.1333 108.8H42.6667C43.8448 108.8 44.8 107.845 44.8 106.667C44.8 105.489 43.8448 104.533 42.6667 104.533Z" fill="url(#paint12_linear_1361_338)"/>
<path d="M58.1205 27.7973L49.6235 25.664C49.4538 25.6213 49.2797 25.5997 49.1051 25.6H44.8C43.6219 25.6 42.6667 26.5552 42.6667 27.7333C42.6667 30.0898 40.7565 32 38.4 32C36.0435 32 34.1333 30.0898 34.1333 27.7333C34.1333 26.5552 33.1781 25.6 32 25.6H27.68C27.5045 25.6 27.3296 25.6213 27.1595 25.664L18.6794 27.7973C17.7312 28.036 17.0664 28.8888 17.0667 29.8666V38.4C17.0667 39.5781 18.0219 40.5333 19.2 40.5333C19.3747 40.5333 19.5488 40.5117 19.7184 40.4693L25.6 38.9994V57.6C25.6 58.7781 26.5552 59.7333 27.7333 59.7333H49.0667C50.2448 59.7333 51.2 58.7781 51.2 57.6V38.9994L57.0816 40.4693C58.2245 40.7557 59.3832 40.0613 59.6693 38.9184C59.7117 38.7488 59.7333 38.5749 59.7333 38.4V29.8666C59.7336 28.8888 59.0688 28.036 58.1205 27.7973ZM55.4667 35.6672L49.5851 34.1973C48.9477 34.0408 48.2736 34.184 47.7547 34.5856C47.2365 34.9896 46.9336 35.6098 46.9333 36.2666V55.4666H29.8667V36.2666C29.8667 35.0885 28.9115 34.1333 27.7333 34.1333C27.5587 34.1333 27.3845 34.1549 27.2149 34.1973L21.3333 35.6672V31.5306L27.9467 29.8666H30.1376C31.3112 34.4309 35.9627 37.1797 40.5269 36.0064C43.5397 35.2317 45.892 32.8792 46.6667 29.8666H48.8427L55.4667 31.5306V35.6672Z" fill="url(#paint13_linear_1361_338)"/>
</g>
<defs>
<linearGradient id="paint0_linear_1361_338" x1="35.7465" y1="6.62328" x2="32.285" y2="11.7117" gradientUnits="userSpaceOnUse">
<stop stop-color="#DA3276"/>
<stop offset="1" stop-color="#ED722E"/>
</linearGradient>
<linearGradient id="paint1_linear_1361_338" x1="46.4132" y1="6.62328" x2="42.9516" y2="11.7117" gradientUnits="userSpaceOnUse">
<stop stop-color="#DA3276"/>
<stop offset="1" stop-color="#ED722E"/>
</linearGradient>
<linearGradient id="paint2_linear_1361_338" x1="117.597" y1="6.69752" x2="5.97112" y2="116.09" gradientUnits="userSpaceOnUse">
<stop stop-color="#DA3276"/>
<stop offset="1" stop-color="#ED722E"/>
</linearGradient>
<linearGradient id="paint3_linear_1361_338" x1="18.6798" y1="66.3566" x2="15.2183" y2="71.445" gradientUnits="userSpaceOnUse">
<stop stop-color="#DA3276"/>
<stop offset="1" stop-color="#ED722E"/>
</linearGradient>
<linearGradient id="paint4_linear_1361_338" x1="46.986" y1="66.3566" x2="45.7557" y2="73.5905" gradientUnits="userSpaceOnUse">
<stop stop-color="#DA3276"/>
<stop offset="1" stop-color="#ED722E"/>
</linearGradient>
<linearGradient id="paint5_linear_1361_338" x1="18.6798" y1="74.8899" x2="15.2183" y2="79.9783" gradientUnits="userSpaceOnUse">
<stop stop-color="#DA3276"/>
<stop offset="1" stop-color="#ED722E"/>
</linearGradient>
<linearGradient id="paint6_linear_1361_338" x1="43.0661" y1="74.8899" x2="41.6078" y2="82.0355" gradientUnits="userSpaceOnUse">
<stop stop-color="#DA3276"/>
<stop offset="1" stop-color="#ED722E"/>
</linearGradient>
<linearGradient id="paint7_linear_1361_338" x1="18.6798" y1="83.4232" x2="15.2183" y2="88.5116" gradientUnits="userSpaceOnUse">
<stop stop-color="#DA3276"/>
<stop offset="1" stop-color="#ED722E"/>
</linearGradient>
<linearGradient id="paint8_linear_1361_338" x1="43.0661" y1="83.4232" x2="41.6078" y2="90.5688" gradientUnits="userSpaceOnUse">
<stop stop-color="#DA3276"/>
<stop offset="1" stop-color="#ED722E"/>
</linearGradient>
<linearGradient id="paint9_linear_1361_338" x1="95.3064" y1="53.7799" x2="87.8647" y2="61.0727" gradientUnits="userSpaceOnUse">
<stop stop-color="#DA3276"/>
<stop offset="1" stop-color="#ED722E"/>
</linearGradient>
<linearGradient id="paint10_linear_1361_338" x1="105.973" y1="53.7799" x2="98.5314" y2="61.0727" gradientUnits="userSpaceOnUse">
<stop stop-color="#DA3276"/>
<stop offset="1" stop-color="#ED722E"/>
</linearGradient>
<linearGradient id="paint11_linear_1361_338" x1="108.507" y1="33.1163" x2="90.7924" y2="57.4214" gradientUnits="userSpaceOnUse">
<stop stop-color="#DA3276"/>
<stop offset="1" stop-color="#ED722E"/>
</linearGradient>
<linearGradient id="paint12_linear_1361_338" x1="43.7597" y1="104.757" x2="41.4905" y2="111.428" gradientUnits="userSpaceOnUse">
<stop stop-color="#DA3276"/>
<stop offset="1" stop-color="#ED722E"/>
</linearGradient>
<linearGradient id="paint13_linear_1361_338" x1="56.2655" y1="27.386" x2="27.0954" y2="63.1194" gradientUnits="userSpaceOnUse">
<stop stop-color="#DA3276"/>
<stop offset="1" stop-color="#ED722E"/>
</linearGradient>
<clipPath id="clip0_1361_338">
<rect width="128" height="128" fill="white"/>
</clipPath>
</defs>
</svg>
