<svg width="128" height="128" viewBox="0 0 128 128" fill="none" xmlns="http://www.w3.org/2000/svg">
<g clip-path="url(#clip0_1371_29)">
<path d="M22 84C17.6488 84 13.3953 85.2903 9.77746 87.7077C6.15958 90.1251 3.33979 93.561 1.67466 97.581C0.00953233 101.601 -0.426141 106.024 0.422734 110.292C1.27161 114.56 3.36691 118.48 6.44366 121.556C9.52042 124.633 13.4404 126.728 17.708 127.577C21.9756 128.426 26.3991 127.99 30.419 126.325C34.439 124.66 37.875 121.84 40.2923 118.223C42.7097 114.605 44 110.351 44 106C43.9934 100.167 41.6735 94.5753 37.5491 90.4509C33.4247 86.3266 27.8327 84.0066 22 84ZM22 124C18.4399 124 14.9598 122.944 11.9997 120.966C9.03966 118.989 6.73256 116.177 5.37018 112.888C4.0078 109.599 3.65134 105.98 4.34587 102.488C5.04041 98.9967 6.75474 95.7894 9.27209 93.2721C11.7894 90.7547 14.9967 89.0404 18.4884 88.3459C21.98 87.6513 25.5992 88.0078 28.8883 89.3702C32.1774 90.7325 34.9886 93.0396 36.9665 95.9997C38.9443 98.9598 40 102.44 40 106C39.9945 110.772 38.0963 115.347 34.7218 118.722C31.3474 122.096 26.7722 123.994 22 124Z" fill="url(#paint0_linear_1371_29)"/>
<path d="M126 114H116V30C116 29.7373 115.948 29.4772 115.848 29.2346C115.747 28.9919 115.6 28.7714 115.414 28.5856C115.229 28.3999 115.008 28.2526 114.765 28.1521C114.523 28.0516 114.263 27.9999 114 28H98C97.7373 27.9999 97.4772 28.0516 97.2345 28.1521C96.9918 28.2526 96.7713 28.3999 96.5856 28.5856C96.3999 28.7714 96.2525 28.9919 96.1521 29.2346C96.0516 29.4772 95.9999 29.7373 96 30V114H88V42C88 41.7373 87.9483 41.4772 87.8479 41.2346C87.7474 40.9919 87.6001 40.7714 87.4143 40.5856C87.2286 40.3999 87.0081 40.2526 86.7654 40.1521C86.5227 40.0516 86.2626 39.9999 86 40H70C69.7373 39.9999 69.4772 40.0516 69.2345 40.1521C68.9918 40.2526 68.7713 40.3999 68.5856 40.5856C68.3999 40.7714 68.2525 40.9919 68.1521 41.2346C68.0516 41.4772 67.9999 41.7373 68 42V114H60V54C60 53.4696 59.7892 52.9609 59.4142 52.5858C59.0391 52.2107 58.5304 52 58 52H42C41.4695 52 40.9608 52.2107 40.5857 52.5858C40.2107 52.9609 40 53.4696 40 54V86.42C40 86.9504 40.2107 87.4591 40.5857 87.8342C40.9608 88.2093 41.4695 88.42 42 88.42C42.5304 88.42 43.0391 88.2093 43.4142 87.8342C43.7892 87.4591 44 86.9504 44 86.42V56H56V114H48.1396C47.6092 114 47.1005 114.211 46.7254 114.586C46.3503 114.961 46.1396 115.47 46.1396 116C46.1396 116.53 46.3503 117.039 46.7254 117.414C47.1005 117.789 47.6092 118 48.1396 118H124V124H41.58C41.0495 124 40.5408 124.211 40.1657 124.586C39.7907 124.961 39.58 125.47 39.58 126C39.58 126.53 39.7907 127.039 40.1657 127.414C40.5408 127.789 41.0495 128 41.58 128H126C126.263 128 126.523 127.948 126.765 127.848C127.008 127.747 127.229 127.6 127.414 127.414C127.6 127.229 127.747 127.008 127.848 126.765C127.948 126.523 128 126.263 128 126V116C128 115.737 127.948 115.477 127.848 115.235C127.747 114.992 127.6 114.771 127.414 114.586C127.229 114.4 127.008 114.253 126.765 114.152C126.523 114.052 126.263 114 126 114ZM100 32H112V114H100V32ZM72 44H84V114H72V44Z" fill="url(#paint1_linear_1371_29)"/>
<path d="M14 81.1602C14.5304 81.1601 15.0391 80.9494 15.4142 80.5743C15.7893 80.1993 16 79.6906 16 79.1602V66H28V79.1602C28 79.6906 28.2107 80.1993 28.5858 80.5744C28.9609 80.9494 29.4696 81.1602 30 81.1602C30.5304 81.1602 31.0391 80.9494 31.4142 80.5744C31.7893 80.1993 32 79.6906 32 79.1602V64C32 63.4696 31.7893 62.9609 31.4142 62.5858C31.0391 62.2107 30.5304 62 30 62H14C13.4696 62 12.9609 62.2107 12.5858 62.5858C12.2107 62.9609 12 63.4696 12 64V79.1602C12 79.6906 12.2107 80.1993 12.5858 80.5743C12.9609 80.9494 13.4696 81.1601 14 81.1602Z" fill="url(#paint2_linear_1371_29)"/>
<path d="M21.998 50L22.0947 49.998C57.9345 48.2908 93.0384 17.3456 104 6.8081V20C104 20.5304 104.211 21.0391 104.586 21.4142C104.961 21.7893 105.47 22 106 22C106.53 22 107.039 21.7893 107.414 21.4142C107.789 21.0391 108 20.5304 108 20V2L107.995 1.9768C107.977 1.45507 107.761 0.959926 107.39 0.592518C107.019 0.22511 106.522 0.0131706 106 0L88 0C87.4696 0 86.9609 0.210714 86.5858 0.585786C86.2107 0.960859 86 1.46957 86 2C86 2.53043 86.2107 3.03914 86.5858 3.41421C86.9609 3.78929 87.4696 4 88 4H101.108C90.33 14.2378 55.8402 44.3866 21.9053 46.002C21.3839 46.0269 20.893 46.2546 20.5372 46.6366C20.1814 47.0185 19.989 47.5244 20.0011 48.0462C20.0133 48.5681 20.2289 49.0645 20.602 49.4295C20.9751 49.7946 21.4761 49.9993 21.998 50Z" fill="url(#paint3_linear_1371_29)"/>
<path d="M21.4916 100.527C21.4946 100.527 21.4972 100.529 21.4999 100.529C21.5043 100.529 21.508 100.526 21.5124 100.526H24.7073C25.4217 100.526 25.9998 99.9652 25.9998 99.272C25.9998 98.5788 25.4217 98.0179 24.7073 98.0179H22.7925V96.2541C22.7925 95.561 22.2137 95 21.4999 95C20.7862 95 20.2074 95.561 20.2074 96.2541V98.2234C18.3583 98.7665 17 100.416 17 102.385C17 104.638 18.7641 106.638 21.3966 106.734C22.7882 106.847 23.4149 107.634 23.4149 108.61C23.4149 109.634 22.5559 110.468 21.5001 110.468H18.2927C17.5789 110.468 17.0002 111.029 17.0002 111.722C17.0002 112.415 17.5789 112.976 18.2927 112.976H20.2075V114.746C20.2075 115.439 20.7863 116 21.5001 116C22.2138 116 22.7926 115.439 22.7926 114.746V112.77C24.6415 112.227 26 110.577 26 108.607C26 106.319 24.1864 104.268 21.5353 104.242C20.3391 104.217 19.5851 103.348 19.5851 102.386C19.5851 101.363 20.4397 100.532 21.4916 100.527Z" fill="url(#paint4_linear_1371_29)"/>
</g>
<defs>
<linearGradient id="paint0_linear_1371_29" x1="40.4238" y1="86.3023" x2="2.05257" y2="123.906" gradientUnits="userSpaceOnUse">
<stop stop-color="#DA3276"/>
<stop offset="1" stop-color="#ED722E"/>
</linearGradient>
<linearGradient id="paint1_linear_1371_29" x1="120.813" y1="33.2324" x2="34.4759" y2="108.045" gradientUnits="userSpaceOnUse">
<stop stop-color="#DA3276"/>
<stop offset="1" stop-color="#ED722E"/>
</linearGradient>
<linearGradient id="paint2_linear_1371_29" x1="30.3745" y1="63.0025" x2="13.6663" y2="80.0943" gradientUnits="userSpaceOnUse">
<stop stop-color="#DA3276"/>
<stop offset="1" stop-color="#ED722E"/>
</linearGradient>
<linearGradient id="paint3_linear_1371_29" x1="100.848" y1="2.61622" x2="62.9989" y2="67.8974" gradientUnits="userSpaceOnUse">
<stop stop-color="#DA3276"/>
<stop offset="1" stop-color="#ED722E"/>
</linearGradient>
<linearGradient id="paint4_linear_1371_29" x1="25.2685" y1="96.0988" x2="12.1892" y2="101.592" gradientUnits="userSpaceOnUse">
<stop stop-color="#DA3276"/>
<stop offset="1" stop-color="#ED722E"/>
</linearGradient>
<clipPath id="clip0_1371_29">
<rect width="128" height="128" fill="white"/>
</clipPath>
</defs>
</svg>
