<svg width="304" height="28" viewBox="0 0 304 28" fill="none" xmlns="http://www.w3.org/2000/svg">
<path fill-rule="evenodd" clip-rule="evenodd" d="M3.74271 27.9995C1.67581 27.9995 0 26.3394 0 24.2919C0 22.2444 1.67581 20.5844 3.74271 20.5844C5.8096 20.5844 7.48542 22.2439 7.48542 24.2919C7.48542 26.34 5.8096 27.9995 3.74271 27.9995Z" fill="white"/>
<path fill-rule="evenodd" clip-rule="evenodd" d="M3.74271 7.41462C1.67581 7.41462 0 5.75507 0 3.70704C0 1.65901 1.67581 0 3.74271 0C5.8096 0 7.48542 1.65955 7.48542 3.70704C7.48542 5.75453 5.8096 7.41462 3.74271 7.41462Z" fill="white"/>
<path fill-rule="evenodd" clip-rule="evenodd" d="M24.5221 27.9995C22.4552 27.9995 20.7793 26.3394 20.7793 24.2919C20.7793 22.2444 22.4552 20.5844 24.5221 20.5844C26.5889 20.5844 28.2648 22.2439 28.2648 24.2919C28.2648 26.34 26.5889 27.9995 24.5221 27.9995Z" fill="white"/>
<path fill-rule="evenodd" clip-rule="evenodd" d="M24.5221 17.7065C22.4552 17.7065 20.7793 16.0469 20.7793 13.9994C20.7793 11.952 22.4552 10.2919 24.5221 10.2919C26.5889 10.2919 28.2648 11.9514 28.2648 13.9994C28.2648 16.0475 26.5889 17.7065 24.5221 17.7065Z" fill="white"/>
<path fill-rule="evenodd" clip-rule="evenodd" d="M3.74271 10.2924C1.67581 10.2924 0 11.952 0 13.9995C0 16.047 1.67581 17.707 3.74271 17.707H3.7525C5.57517 17.7022 7.14547 18.3445 8.43456 19.6214L8.4574 19.6446C9.74649 20.9216 10.3943 22.4772 10.3899 24.2827V24.2924C10.3899 26.3399 12.0652 28 14.1321 28C16.199 28 17.8748 26.3399 17.8748 24.2924C17.8748 22.2449 16.199 20.5848 14.1321 20.5848H14.1223C12.2996 20.5897 10.7294 19.9474 9.44026 18.6704L9.41687 18.6473C8.12778 17.3703 7.47998 15.8147 7.48433 14.0092V14.0022V14.0011V14V13.9989V13.9978V13.9968V13.9892C7.47998 12.1837 8.12778 10.6281 9.41687 9.35112L9.44026 9.32848C10.7294 8.0515 12.2996 7.40977 14.1223 7.41408H14.1321C16.199 7.41408 17.8748 5.75399 17.8748 3.7065C17.8748 1.65901 16.199 0 14.1321 0C12.0652 0 10.3899 1.65955 10.3899 3.70758V3.71728C10.3943 5.52284 9.74649 7.0784 8.4574 8.35539L8.43456 8.37802C7.14547 9.65501 5.57517 10.2967 3.7525 10.2924H3.74271Z" fill="white"/>
<path fill-rule="evenodd" clip-rule="evenodd" d="M14.1321 10.2925C12.0652 10.2925 10.3899 11.952 10.3899 14.0001C10.3899 16.0481 12.0652 17.7076 14.1321 17.7076C16.199 17.7076 17.8748 16.0476 17.8748 14.0001V13.9904C17.8705 12.1848 18.5183 10.6292 19.8074 9.35225L19.8307 9.32962C21.1198 8.05263 22.6901 7.41091 24.5128 7.41522H24.5226C26.5895 7.41522 28.2653 5.75513 28.2653 3.70764C28.2653 1.66015 26.5889 6.10352e-05 24.5221 6.10352e-05C22.4552 6.10352e-05 20.7799 1.65961 20.7799 3.70764V3.71734C20.7842 5.5229 20.1364 7.07846 18.8473 8.35545L18.8245 8.37808C17.5354 9.65507 15.9651 10.2968 14.1424 10.2925H14.1327" fill="url(#paint0_linear_1363_442)"/>
<path fill-rule="evenodd" clip-rule="evenodd" d="M55.1579 10.6385V6.05408H38.9603V22.0997H43.5882V16.3691H55.1579V11.7847H43.5882V10.6385H55.1579ZM56.3149 6.05408H72.5125V22.0997H67.8846V18.6613H60.9428V22.0997H56.3149V6.05408ZM60.9428 10.6385V14.0769H67.8846V10.6385H60.9428ZM85.2393 6.05408V14.2717L76.9438 6.05408H73.6695V22.0997H78.2974V13.882L86.5929 22.0997H89.8672V6.05408H85.2393ZM91.0241 6.05408H107.222V22.0997H102.594V18.6613H95.652V22.0997H91.0241V6.05408ZM95.652 10.6385V14.0769H102.594V10.6385H95.652ZM114.164 22.0997H118.792V10.6385H124.576V6.05408H108.379V10.6385H114.164V22.0997ZM130.361 22.0997H125.733V6.05408H130.361V22.0997ZM143.088 15.223V17.5152H136.146V10.6385H143.088V12.9308H147.716V6.05408H131.518V22.0997H147.716V15.223H143.088ZM148.873 22.0997V17.5152H160.443V16.3691H148.873V6.05408H165.07V10.6385H153.501V11.7847H165.07V22.0997H148.873ZM188.303 6.05408H172.105V22.0997H176.733V18.6613H183.675V22.0997H188.303V6.05408ZM176.733 14.0769V10.6385H183.675V14.0769H176.733ZM205.657 6.05408V10.6385H194.087V11.7847H205.657V16.3691H194.087V22.0997H189.46V6.05408H205.657ZM223.012 10.6385V6.05408H206.814V22.0997H211.442V16.3691H223.012V11.7847H211.442V10.6385H223.012ZM228.797 22.0997H224.169V6.05408H228.797V22.0997ZM234.582 6.05408H229.954V22.0997H246.151V15.223H241.523V17.5152H234.582V6.05408ZM251.936 22.0997H247.308V6.05408H251.936V22.0997ZM269.291 6.05408H253.093V22.0997H257.721V18.6613H264.663V22.0997H269.291V6.05408ZM257.721 14.0769V10.6385H264.663V14.0769H257.721ZM286.645 10.6385H280.86V22.0997H276.233V10.6385H270.448V6.05408H286.645V10.6385ZM292.43 17.5152H304V22.0997H287.802V6.05408H304V10.6385H292.43V11.7847H304V16.3691H292.43V17.5152Z" fill="url(#paint1_linear_1363_442)"/>
<defs>
<linearGradient id="paint0_linear_1363_442" x1="26.8125" y1="0.926599" x2="11.3679" y2="16.2057" gradientUnits="userSpaceOnUse">
<stop stop-color="#DA3276"/>
<stop offset="1" stop-color="#ED722E"/>
</linearGradient>
<linearGradient id="paint1_linear_1363_442" x1="282.458" y1="6.89365" x2="280.736" y2="34.7789" gradientUnits="userSpaceOnUse">
<stop stop-color="#DA3276"/>
<stop offset="1" stop-color="#ED722E"/>
</linearGradient>
</defs>
</svg>
