<svg width="118" height="124" viewBox="0 0 118 124" fill="none" xmlns="http://www.w3.org/2000/svg">
<path d="M90.033 81.429L70.7002 92.6892C69.9607 93.1197 69.211 93.4515 68.439 93.686C68.6768 93.2095 68.8715 92.694 69.0195 92.1412C70.0468 88.3065 67.7722 84.304 63.8412 83.0297C63.7555 83.0022 63.668 82.9802 63.5795 82.964C58.0467 81.966 52.575 79.988 48.1787 78.3982C46.6457 77.844 45.1978 77.3205 43.9637 76.9205C38.9075 75.2802 34.3638 77.2955 30.5855 79.4832L16.451 87.6667L15.2362 85.5205C14.6003 84.3967 13.5618 83.5872 12.312 83.2407C11.0623 82.894 9.755 83.0542 8.6315 83.6902L3.2075 86.76C2.0835 87.3962 1.274 88.4345 0.9275 89.6842C0.58125 90.9337 0.74075 92.241 1.37675 93.365L17.324 121.543C18.2145 123.116 19.859 124.001 21.55 124.001C22.358 124.001 23.177 123.799 23.929 123.373L29.3535 120.303C31.679 118.987 32.5002 116.024 31.184 113.699L29.6787 111.039L32.611 109.346L57.2583 115.95C58.6493 116.323 60.0337 116.508 61.3952 116.508C64.1495 116.508 66.81 115.75 69.2428 114.252L104.327 92.6492C107.65 90.6027 108.71 85.455 106.55 81.8487C105.504 80.1025 101.223 74.912 90.033 81.429ZM27.383 116.822L21.9587 119.892C21.5595 120.117 21.031 119.971 20.805 119.572L4.858 91.3947C4.70975 91.133 4.747 90.88 4.78225 90.7527C4.81775 90.6252 4.916 90.3895 5.17775 90.2412L10.6023 87.1715C10.7478 87.0892 10.8905 87.064 11.0105 87.064C11.1062 87.064 11.1877 87.08 11.2442 87.0957C11.3717 87.131 11.6075 87.2292 11.7555 87.491L27.703 115.669C27.9287 116.068 27.7822 116.596 27.383 116.822ZM102.229 89.243L67.1455 110.846C64.4328 112.516 61.4548 112.934 58.2938 112.086L32.846 105.268C32.334 105.13 31.7877 105.202 31.3285 105.468L27.7085 107.558L18.4215 91.1482L32.59 82.945C35.7573 81.1115 39.1772 79.5732 42.73 80.7255C43.9007 81.1052 45.253 81.5942 46.819 82.1602C51.319 83.7872 56.9105 85.8087 62.723 86.874C64.588 87.536 65.6305 89.3352 65.156 91.1062C64.531 93.439 62.5687 93.7285 61.0042 93.551C58.1735 92.9677 55.4778 92.1987 52.6258 91.3842C51.267 90.9962 49.862 90.595 48.417 90.2077C47.3507 89.9227 46.2535 90.5552 45.9675 91.622C45.6815 92.689 46.3147 93.7855 47.3817 94.0715C48.7952 94.4502 50.184 94.847 51.5272 95.2305C54.4837 96.075 57.2763 96.8725 60.2883 97.4882C60.3015 97.491 60.3145 97.4917 60.3275 97.4942C60.3412 97.4967 60.3542 97.5007 60.368 97.503L62.7728 97.8937C66.4355 98.48 69.6875 97.9082 72.7135 96.146L92.0462 84.8857C97.4595 81.7332 101.599 81.3665 103.119 83.9042C104.157 85.638 103.708 88.3325 102.229 89.243ZM12.0357 92.366C12.1905 93.4242 11.458 94.4077 10.3997 94.5625C9.34125 94.7172 8.358 93.9847 8.20325 92.9265C8.0485 91.868 8.781 90.8847 9.8395 90.73C10.8975 90.575 11.881 91.3075 12.0357 92.366ZM115.968 33.284L111.059 31.3942C110.343 28.7737 109.301 26.2597 107.951 23.897L110.088 19.0862C110.424 18.3302 110.259 17.4455 109.674 16.8602L102.89 10.076C102.305 9.49097 101.42 9.32722 100.663 9.66247L95.851 11.8C93.4883 10.45 90.9757 9.40822 88.3562 8.69247L86.4658 3.78147C86.1688 3.00947 85.4268 2.49997 84.5993 2.49997H75.005C74.1777 2.49997 73.4357 3.00947 73.1385 3.78147L71.248 8.69247C68.6285 9.40797 66.116 10.4497 63.7533 11.8L61.239 10.6832L52.5532 1.99747C49.8892 -0.665778 45.5548 -0.666278 42.8903 1.99772L41.5235 3.36447C40.2355 4.65247 39.526 6.36847 39.526 8.19597C39.526 10.0235 40.2352 11.7395 41.5235 13.0275L51.0622 22.5662L51.654 23.8987C50.304 26.2612 49.262 28.7745 48.5465 31.3942L43.6362 33.2845C42.8643 33.5815 42.3548 34.3235 42.3548 35.151V44.7452C42.3548 45.5727 42.8643 46.3145 43.6362 46.6117L48.5455 48.5015C49.2613 51.1227 50.3035 53.6367 51.6535 55.999L49.517 60.8095C49.181 61.5655 49.3455 62.4502 49.9305 63.0355L56.715 69.82C57.3 70.405 58.1848 70.569 58.941 70.2335L63.7535 68.096C66.116 69.4457 68.629 70.4875 71.2483 71.2032L73.1385 76.1142C73.4355 76.8862 74.1775 77.3957 75.005 77.3957H84.5995C85.427 77.3957 86.1688 76.8862 86.466 76.1142L88.3558 71.2047C90.9762 70.4892 93.4902 69.447 95.853 68.0967L100.664 70.2335C101.42 70.5687 102.305 70.4052 102.89 69.8197L109.674 63.035C110.259 62.45 110.424 61.5652 110.088 60.8092L107.95 55.9967C109.3 53.6342 110.342 51.1212 111.058 48.502L115.968 46.6117C116.74 46.3147 117.25 45.5727 117.25 44.7452V35.1507C117.25 34.323 116.74 33.581 115.968 33.284ZM63.29 34.7937L76.2428 47.7465C76.3005 47.8042 76.3615 47.8562 76.4242 47.9055C76.4402 47.918 76.4567 47.9292 76.473 47.9412C76.5238 47.9787 76.5758 48.0135 76.6292 48.0455C76.6458 48.0555 76.6623 48.0655 76.6793 48.075C76.7465 48.1127 76.815 48.1475 76.8852 48.1767C76.8877 48.1777 76.89 48.1792 76.8925 48.18C76.9678 48.2112 77.0447 48.2367 77.1225 48.258C77.1283 48.2595 77.1335 48.2622 77.1393 48.2637L88.3425 51.2655C88.5135 51.3115 88.6875 51.3335 88.86 51.3335C89.3835 51.3335 89.8942 51.1277 90.2742 50.7477C90.7795 50.2425 90.977 49.506 90.792 48.8157L87.79 37.6127C87.7885 37.607 87.786 37.6017 87.7842 37.596C87.7627 37.518 87.7373 37.441 87.706 37.3657C87.7053 37.3637 87.704 37.362 87.7032 37.36C87.6737 37.2892 87.639 37.2205 87.601 37.1527C87.5915 37.1355 87.5812 37.119 87.571 37.1022C87.5392 37.0495 87.5048 36.998 87.4678 36.9477C87.4553 36.9307 87.4435 36.9137 87.4305 36.8972C87.3815 36.8347 87.3295 36.774 87.272 36.7165L74.1572 23.6017C75.9642 22.98 77.8768 22.6562 79.802 22.6562C89.3368 22.6562 97.0938 30.4132 97.0938 39.948C97.0938 49.4827 89.3368 57.2395 79.802 57.2395C70.2673 57.2395 62.5102 49.4827 62.5102 39.948C62.5105 38.172 62.773 36.448 63.29 34.7937ZM84.823 41.9942L86.0318 46.5052L81.5208 45.2965L84.823 41.9942ZM69.2645 24.3655C69.2703 24.3712 69.276 24.377 69.2818 24.3827L83.0297 38.1305L77.6568 43.5035L63.9737 29.8205C63.9712 29.818 63.969 29.8157 63.9665 29.8132L49.7552 15.602L55.1283 10.2292L69.2645 24.3655ZM43.5262 8.19572C43.5262 7.43672 43.8195 6.72522 44.3522 6.19247L45.719 4.82572C46.8232 3.72122 48.6208 3.72122 49.725 4.82572L52.2998 7.40047L46.9268 12.7732L44.352 10.1985C43.8195 9.66622 43.5262 8.95472 43.5262 8.19572ZM113.25 43.3715L108.657 45.1392C108.042 45.376 107.583 45.9012 107.43 46.5427C106.734 49.4657 105.581 52.249 104 54.8155C103.655 55.377 103.608 56.073 103.875 56.6757L105.874 61.1772L101.032 66.0197L96.5325 64.0212C95.9293 63.7535 95.2332 63.7997 94.672 64.1462C92.1057 65.7265 89.3215 66.8807 86.3968 67.5767C85.7552 67.7292 85.23 68.1882 84.9932 68.8037L83.226 73.395H76.378L74.6103 68.8022C74.3735 68.187 73.8485 67.7277 73.2067 67.5752C70.2835 66.8795 67.5 65.7257 64.9337 64.1452C64.372 63.7992 63.676 63.7525 63.0735 64.0205L58.5723 66.0197L53.7298 61.1775L55.7282 56.678C55.996 56.0752 55.9492 55.3792 55.6032 54.8175C54.0232 52.252 52.869 49.468 52.173 46.542C52.0203 45.9007 51.5613 45.3755 50.9458 45.1387L46.3545 43.3715V36.5237L50.9468 34.756C51.5623 34.5192 52.0213 33.994 52.174 33.3525C52.755 30.9102 53.6605 28.568 54.8625 26.3662L60.1765 31.6802C59.0715 34.2922 58.5105 37.066 58.5105 39.9477C58.5105 51.688 68.062 61.2392 79.8023 61.2392C91.5425 61.2392 101.094 51.688 101.094 39.9477C101.094 28.2075 91.5425 18.656 79.8023 18.656C76.7928 18.656 73.8067 19.2992 71.0788 20.5227L65.7975 15.2415C68.1213 13.921 70.6085 12.9382 73.207 12.3197C73.8485 12.1672 74.3735 11.7082 74.6103 11.0927L76.3783 6.49997H83.2262L84.994 11.0927C85.2308 11.708 85.7557 12.1672 86.3972 12.3197C89.3202 13.0155 92.1038 14.1695 94.6702 15.75C95.2318 16.0957 95.928 16.1422 96.5305 15.8747L101.032 13.8755L105.874 18.7175L103.876 23.2172C103.608 23.82 103.655 24.516 104.001 25.0777C105.581 27.644 106.735 30.428 107.431 33.3527C107.584 33.9942 108.043 34.5195 108.659 34.7562L113.25 36.5237V43.3715Z" fill="url(#paint0_linear_1361_337)"/>
<defs>
<linearGradient id="paint0_linear_1361_337" x1="107.781" y1="6.48816" x2="-0.0114218" y2="105.736" gradientUnits="userSpaceOnUse">
<stop stop-color="#DA3276"/>
<stop offset="1" stop-color="#ED722E"/>
</linearGradient>
</defs>
</svg>
