<svg width="126" height="124" viewBox="0 0 126 124" fill="none" xmlns="http://www.w3.org/2000/svg">
<path d="M28 88C23.588 88 20 91.588 20 96C20 100.412 23.588 104 28 104C32.412 104 36 100.412 36 96C36 91.588 32.412 88 28 88ZM28 100C25.794 100 24 98.206 24 96C24 93.794 25.794 92 28 92C30.206 92 32 93.794 32 96C32 98.206 30.206 100 28 100Z" fill="url(#paint0_linear_1370_5)"/>
<path d="M28 80C19.178 80 12 87.178 12 96C12 104.822 19.178 112 28 112C36.822 112 44 104.822 44 96C44 87.178 36.822 80 28 80ZM28 108C21.382 108 16 102.618 16 96C16 89.382 21.382 84 28 84C34.618 84 40 89.382 40 96C40 102.618 34.618 108 28 108Z" fill="url(#paint1_linear_1370_5)"/>
<path d="M125.206 89.87L120 86.052V53.224L113.832 55.28C112.4 55.758 110.91 56 109.404 56C106.424 56 104 53.576 104 50.598V45.402C104 42.424 106.424 40 109.402 40C110.912 40 112.402 40.242 113.834 40.718L120 42.778V22C120 18.692 117.308 16 114 16H98.776L99.456 13.958C99.816 12.876 100 11.748 100 10.602C100 4.756 95.244 0 89.396 0H86.604C80.756 0 76 4.758 76 10.606C76 11.748 76.184 12.878 76.544 13.958L77.224 16H66C64.458 16 63.064 16.602 62 17.56C60.936 16.602 59.542 16 58 16H42.776L43.456 13.958C43.816 12.876 44 11.748 44 10.602C44 4.756 39.244 0 33.396 0H30.604C24.756 0 20 4.758 20 10.606C20 11.748 20.184 12.878 20.544 13.958L21.224 16H10C6.692 16 4 18.692 4 22V80.4L2.544 81.856L5.27 84.586C6.146 85.462 5.824 86.474 5.706 86.766C5.586 87.054 5.098 88 3.858 88H0V104H3.858C5.098 104 5.586 104.946 5.708 105.234C5.828 105.526 6.15 106.536 5.27 107.414L2.546 110.144L13.856 121.454L16.586 118.728C17.466 117.85 18.474 118.176 18.766 118.292C19.054 118.414 20 118.902 20 120.142V124H36V120.142C36 118.902 36.946 118.414 37.234 118.292C37.524 118.174 38.534 117.844 39.414 118.73L42.144 121.454L53.454 110.144L50.728 107.414C49.852 106.538 50.174 105.526 50.292 105.234C50.414 104.946 50.902 104 52.142 104H54H56H90V120.38L125.206 89.87ZM66 20H82.776L80.338 12.692C80.114 12.018 80 11.316 80 10.606C80 6.962 82.962 4 86.604 4H89.396C93.038 4 96 6.962 96 10.604C96 11.316 95.886 12.018 95.662 12.692L93.224 20H114C115.104 20 116 20.896 116 22V37.226L115.1 36.926C113.26 36.31 111.344 36 109.402 36C104.218 36 100 40.218 100 45.402V50.598C100 55.782 104.218 60 109.404 60C111.342 60 113.256 59.69 115.094 59.078L116 58.776V83.12L90 64.054V80H64V58.776L64.902 59.076C66.742 59.692 68.658 60.002 70.598 60.002C75.784 60 80 55.782 80 50.598V45.404C80 42.892 79.022 40.528 77.246 38.754C75.47 36.98 73.11 36.002 70.6 36.002C70.6 36.002 70.598 36.002 70.596 36.002C68.658 36.002 66.744 36.312 64.904 36.926L64 37.226V22C64 20.896 64.896 20 66 20ZM8 22C8 20.896 8.896 20 10 20H26.776L24.338 12.692C24.114 12.018 24 11.316 24 10.606C24 6.962 26.962 4 30.604 4H33.396C37.038 4 40 6.962 40 10.604C40 11.316 39.886 12.018 39.662 12.692L37.224 20H58C59.104 20 60 20.896 60 22V42.778L66.168 40.722C67.6 40.246 69.09 40.004 70.596 40.004H70.6C72.042 40.004 73.398 40.564 74.418 41.586C75.438 42.606 76 43.962 76 45.406V50.6C76 53.578 73.576 56.002 70.598 56.004C69.09 56.004 67.6 55.762 66.168 55.284L60 53.228V80H51.6L42.144 70.544L39.414 73.27C38.536 74.148 37.524 73.82 37.234 73.706C36.946 73.586 36 73.098 36 71.858V68H20V71.858C20 73.098 19.054 73.586 18.766 73.708C18.474 73.824 17.468 74.154 16.586 73.27L13.856 70.546L8 76.4V22ZM52 100.002C49.588 100.054 47.526 101.462 46.598 103.706C45.67 105.946 46.134 108.4 47.802 110.142L42.142 115.802C40.398 114.132 37.948 113.672 35.706 114.598C33.464 115.524 32.054 117.588 32.002 120H23.998C23.946 117.588 22.538 115.526 20.294 114.598C18.052 113.672 15.6 114.136 13.858 115.802L8.2 110.14C9.868 108.398 10.33 105.944 9.404 103.704C8.474 101.462 6.412 100.054 4 100.002V91.998C6.412 91.946 8.474 90.538 9.402 88.294C10.33 86.054 9.866 83.6 8.198 81.858L13.858 76.198C15.602 77.866 18.05 78.328 20.294 77.402C22.536 76.474 23.944 74.412 23.998 72H32.002C32.054 74.412 33.462 76.474 35.706 77.402C37.952 78.332 40.404 77.864 42.142 76.198L47.802 81.858C46.134 83.6 45.672 86.054 46.598 88.294C47.526 90.536 49.588 91.944 52 91.998V100.002ZM56 100V88H52.142C50.902 88 50.414 87.054 50.292 86.766C50.172 86.474 49.85 85.464 50.73 84.586L51.316 84H94V71.948L118.794 90.132L94 111.62V100H56Z" fill="url(#paint2_linear_1370_5)"/>
<path d="M24 46C24 42.692 21.308 40 18 40C14.692 40 12 42.692 12 46C12 49.308 14.692 52 18 52C21.308 52 24 49.308 24 46ZM16 46C16 44.896 16.896 44 18 44C19.104 44 20 44.896 20 46C20 47.104 19.104 48 18 48C16.896 48 16 47.104 16 46Z" fill="url(#paint3_linear_1370_5)"/>
<path d="M34 52C37.308 52 40 49.308 40 46C40 42.692 37.308 40 34 40C30.692 40 28 42.692 28 46C28 49.308 30.692 52 34 52ZM34 44C35.104 44 36 44.896 36 46C36 47.104 35.104 48 34 48C32.896 48 32 47.104 32 46C32 44.896 32.896 44 34 44Z" fill="url(#paint4_linear_1370_5)"/>
<path d="M50 52C53.308 52 56 49.308 56 46C56 42.692 53.308 40 50 40C46.692 40 44 42.692 44 46C44 49.308 46.692 52 50 52ZM50 44C51.104 44 52 44.896 52 46C52 47.104 51.104 48 50 48C48.896 48 48 47.104 48 46C48 44.896 48.896 44 50 44Z" fill="url(#paint5_linear_1370_5)"/>
<defs>
<linearGradient id="paint0_linear_1370_5" x1="34.6996" y1="88.8372" x2="20.7464" y2="102.511" gradientUnits="userSpaceOnUse">
<stop stop-color="#DA3276"/>
<stop offset="1" stop-color="#ED722E"/>
</linearGradient>
<linearGradient id="paint1_linear_1370_5" x1="41.3991" y1="81.6744" x2="13.4928" y2="109.023" gradientUnits="userSpaceOnUse">
<stop stop-color="#DA3276"/>
<stop offset="1" stop-color="#ED722E"/>
</linearGradient>
<linearGradient id="paint2_linear_1370_5" x1="115.03" y1="6.48822" x2="6.87643" y2="113.509" gradientUnits="userSpaceOnUse">
<stop stop-color="#DA3276"/>
<stop offset="1" stop-color="#ED722E"/>
</linearGradient>
<linearGradient id="paint3_linear_1370_5" x1="23.0247" y1="40.6279" x2="12.5598" y2="50.8835" gradientUnits="userSpaceOnUse">
<stop stop-color="#DA3276"/>
<stop offset="1" stop-color="#ED722E"/>
</linearGradient>
<linearGradient id="paint4_linear_1370_5" x1="39.0247" y1="40.6279" x2="28.5598" y2="50.8835" gradientUnits="userSpaceOnUse">
<stop stop-color="#DA3276"/>
<stop offset="1" stop-color="#ED722E"/>
</linearGradient>
<linearGradient id="paint5_linear_1370_5" x1="55.0247" y1="40.6279" x2="44.5598" y2="50.8835" gradientUnits="userSpaceOnUse">
<stop stop-color="#DA3276"/>
<stop offset="1" stop-color="#ED722E"/>
</linearGradient>
</defs>
</svg>
