<svg width="128" height="128" viewBox="0 0 128 128" fill="none" xmlns="http://www.w3.org/2000/svg">
<g clip-path="url(#clip0_1371_69)">
<path d="M75.419 48.8672C74.0473 48.8672 72.9345 49.9797 72.9345 51.3514V51.3869C72.9345 52.7587 74.047 53.8712 75.419 53.8712C76.7908 53.8712 77.9033 52.7587 77.9033 51.3869V51.3514C77.9033 49.9794 76.791 48.8672 75.419 48.8672Z" fill="url(#paint0_linear_1371_69)"/>
<path d="M89.7452 59.8142V39.4227C89.7452 38.6349 89.3715 37.8937 88.738 37.4252C88.1048 36.9569 87.2865 36.8162 86.5332 37.0474L30.817 54.1102H16.598C7.446 54.1102 0 61.5557 0 70.7079C0 79.3674 6.667 86.4949 15.137 87.2377L20.6052 113.454C21.504 117.764 25.3517 120.892 29.754 120.892C32.58 120.892 35.2232 119.634 37.0057 117.441C38.7882 115.248 39.4798 112.404 38.9025 109.638L37.7043 103.894C42.9448 102.276 46.915 97.9247 48.0703 92.5894L86.5328 104.368C86.7713 104.441 87.0163 104.477 87.26 104.477C87.7858 104.477 88.3048 104.31 88.7375 103.99C89.371 103.521 89.7448 102.78 89.7448 101.992V81.6009C94.715 80.4679 98.4362 76.0157 98.4362 70.7074C98.4362 65.3997 94.715 60.9474 89.7452 59.8142ZM16.598 82.3364C10.1855 82.3364 4.96875 77.1197 4.96875 70.7077C4.96875 64.2952 10.1857 59.0787 16.598 59.0787H28.7043V82.3367H17.1707L16.598 82.3364ZM33.1507 114.307C32.316 115.334 31.0777 115.923 29.7542 115.923C27.6925 115.923 25.8905 114.458 25.4695 112.44L20.2267 87.3052H29.1693L32.3435 102.523C32.344 102.525 32.3442 102.527 32.3447 102.529L34.039 110.652C34.3092 111.948 33.9855 113.28 33.1507 114.307ZM36.6838 98.9979L34.4787 88.4267L43.2962 91.1269C42.667 94.7499 40.1208 97.7607 36.6838 98.9979ZM84.7765 98.6334L77.9035 96.5287V61.3137C77.9035 59.9419 76.791 58.8292 75.4193 58.8292C74.0475 58.8292 72.935 59.9417 72.935 61.3137V95.0072L47.0415 87.0774C46.8005 86.9569 46.5375 86.8744 46.2598 86.8379L33.6735 82.9834V58.4319L84.7767 42.7819V98.6334H84.7765ZM89.745 76.3937V65.0217C91.934 65.9817 93.4672 68.1684 93.4672 70.7077C93.4672 73.2469 91.934 75.4337 89.745 76.3937Z" fill="url(#paint1_linear_1371_69)"/>
<path d="M116.696 68.2234H105.616C104.244 68.2234 103.131 69.3359 103.131 70.7079C103.131 72.0796 104.244 73.1921 105.616 73.1921H116.696C118.068 73.1921 119.181 72.0796 119.181 70.7079C119.181 69.3359 118.068 68.2234 116.696 68.2234Z" fill="url(#paint2_linear_1371_69)"/>
<path d="M109.61 49.0583C108.802 47.9496 107.247 47.7068 106.139 48.5153L100.563 52.5821C99.455 53.3906 99.2117 54.9448 100.02 56.0533C100.506 56.7203 101.263 57.0738 102.029 57.0738C102.537 57.0738 103.049 56.9186 103.491 56.5963L109.067 52.5296C110.176 51.7211 110.419 50.1668 109.61 49.0583Z" fill="url(#paint3_linear_1371_69)"/>
<path d="M109.067 88.8865L103.526 84.8445C102.418 84.0362 100.863 84.279 100.054 85.3877C99.2457 86.4962 99.4892 88.0505 100.598 88.859L106.14 92.9007C106.581 93.223 107.094 93.3782 107.602 93.3782C108.368 93.3782 109.124 93.0242 109.61 92.3577C110.419 91.249 110.176 89.6947 109.067 88.8865Z" fill="url(#paint4_linear_1371_69)"/>
<path d="M113.191 16.0518H61.6237C60.252 16.0518 59.1395 17.1643 59.1395 18.536C59.1395 19.9078 60.252 21.0203 61.6237 21.0203H113.191C114.562 21.0203 115.675 19.9078 115.675 18.536C115.675 17.1643 114.563 16.0518 113.191 16.0518Z" fill="url(#paint5_linear_1371_69)"/>
<path d="M36.4335 16.7798C35.9713 16.3178 35.3308 16.0518 34.677 16.0518C34.0235 16.0518 33.3828 16.3173 32.9208 16.7798C32.4563 17.2418 32.1925 17.8828 32.1925 18.5363C32.1925 19.1898 32.456 19.8305 32.9208 20.2925C33.3825 20.7545 34.0235 21.0208 34.677 21.0208C35.3308 21.0208 35.9713 20.755 36.4335 20.2925C36.8955 19.8308 37.1615 19.1898 37.1615 18.5363C37.1615 17.8828 36.8958 17.2418 36.4335 16.7798Z" fill="url(#paint6_linear_1371_69)"/>
<path d="M27.3035 16.7798C26.8412 16.3178 26.2008 16.0518 25.547 16.0518C24.8935 16.0518 24.2528 16.3173 23.7908 16.7798C23.3288 17.2418 23.0625 17.8828 23.0625 18.5363C23.0625 19.1898 23.3283 19.8305 23.7908 20.2925C24.2525 20.7545 24.8935 21.0208 25.547 21.0208C26.2008 21.0208 26.8412 20.755 27.3035 20.2925C27.7655 19.8308 28.0315 19.1898 28.0315 18.5363C28.0315 17.8828 27.7657 17.2418 27.3035 16.7798Z" fill="url(#paint7_linear_1371_69)"/>
<path d="M45.5635 16.7798C45.099 16.3175 44.4607 16.0518 43.807 16.0518C43.1512 16.0518 42.5127 16.3173 42.0482 16.7798C41.5862 17.2418 41.3225 17.8828 41.3225 18.5363C41.3225 19.1898 41.586 19.8305 42.0482 20.2925C42.5125 20.7545 43.151 21.0208 43.807 21.0208C44.4607 21.0208 45.0987 20.755 45.5635 20.2925C46.0255 19.8308 46.2915 19.1898 46.2915 18.5363C46.2915 17.8828 46.0257 17.2418 45.5635 16.7798Z" fill="url(#paint8_linear_1371_69)"/>
<path d="M117.566 7.10791H21.1723C15.4188 7.10791 10.738 11.7887 10.738 17.5422V51.5779C10.738 52.9497 11.8505 54.0622 13.2223 54.0622C14.594 54.0622 15.7065 52.9497 15.7065 51.5779V41.9069H31.1885C32.5603 41.9069 33.673 40.7944 33.673 39.4227C33.673 38.0509 32.5605 36.9382 31.1885 36.9382H15.7068V29.9624C15.716 29.9624 15.725 29.9639 15.7338 29.9639H123.031V94.5574C123.031 97.5712 120.58 100.023 117.566 100.023H97.7735C96.4018 100.023 95.289 101.135 95.289 102.507C95.289 103.879 96.4015 104.992 97.7735 104.992H117.566C123.319 104.992 128 100.311 128 94.5574V17.5422C128 11.7887 123.319 7.10791 117.566 7.10791ZM123.031 24.9954H15.7338C15.7245 24.9954 15.7155 24.9967 15.7068 24.9969V17.5422C15.7068 14.5284 18.1585 12.0767 21.1723 12.0767H117.566C120.58 12.0767 123.031 14.5284 123.031 17.5422V24.9954Z" fill="url(#paint9_linear_1371_69)"/>
<path d="M41.0023 37.6657C40.5405 37.2037 39.8995 36.9375 39.246 36.9375C38.5925 36.9375 37.9518 37.2032 37.4895 37.6657C37.0275 38.1275 36.7615 38.7685 36.7615 39.422C36.7615 40.0758 37.027 40.7165 37.4895 41.1785C37.9515 41.643 38.5925 41.9065 39.246 41.9065C39.8995 41.9065 40.5403 41.6435 41.0023 41.1785C41.4643 40.7168 41.7305 40.0758 41.7305 39.422C41.7305 38.7685 41.4645 38.1275 41.0023 37.6657Z" fill="url(#paint10_linear_1371_69)"/>
</g>
<defs>
<linearGradient id="paint0_linear_1371_69" x1="77.4994" y1="49.129" x2="73.1363" y2="53.3748" gradientUnits="userSpaceOnUse">
<stop stop-color="#DA3276"/>
<stop offset="1" stop-color="#ED722E"/>
</linearGradient>
<linearGradient id="paint1_linear_1371_69" x1="90.4357" y1="41.3311" x2="17.9081" y2="124.669" gradientUnits="userSpaceOnUse">
<stop stop-color="#DA3276"/>
<stop offset="1" stop-color="#ED722E"/>
</linearGradient>
<linearGradient id="paint2_linear_1371_69" x1="117.876" y1="68.4834" x2="115.386" y2="76.3648" gradientUnits="userSpaceOnUse">
<stop stop-color="#DA3276"/>
<stop offset="1" stop-color="#ED722E"/>
</linearGradient>
<linearGradient id="paint3_linear_1371_69" x1="109.231" y1="48.5106" x2="101.42" y2="57.4439" gradientUnits="userSpaceOnUse">
<stop stop-color="#DA3276"/>
<stop offset="1" stop-color="#ED722E"/>
</linearGradient>
<linearGradient id="paint4_linear_1371_69" x1="109.234" y1="84.8387" x2="101.444" y2="93.7438" gradientUnits="userSpaceOnUse">
<stop stop-color="#DA3276"/>
<stop offset="1" stop-color="#ED722E"/>
</linearGradient>
<linearGradient id="paint5_linear_1371_69" x1="111.08" y1="16.3117" x2="110.309" y2="24.9102" gradientUnits="userSpaceOnUse">
<stop stop-color="#DA3276"/>
<stop offset="1" stop-color="#ED722E"/>
</linearGradient>
<linearGradient id="paint6_linear_1371_69" x1="36.7576" y1="16.3118" x2="32.4243" y2="20.5584" gradientUnits="userSpaceOnUse">
<stop stop-color="#DA3276"/>
<stop offset="1" stop-color="#ED722E"/>
</linearGradient>
<linearGradient id="paint7_linear_1371_69" x1="27.6276" y1="16.3118" x2="23.2943" y2="20.5584" gradientUnits="userSpaceOnUse">
<stop stop-color="#DA3276"/>
<stop offset="1" stop-color="#ED722E"/>
</linearGradient>
<linearGradient id="paint8_linear_1371_69" x1="45.8876" y1="16.3118" x2="41.5543" y2="20.5584" gradientUnits="userSpaceOnUse">
<stop stop-color="#DA3276"/>
<stop offset="1" stop-color="#ED722E"/>
</linearGradient>
<linearGradient id="paint9_linear_1371_69" x1="118.469" y1="12.2296" x2="34.1771" y2="111.19" gradientUnits="userSpaceOnUse">
<stop stop-color="#DA3276"/>
<stop offset="1" stop-color="#ED722E"/>
</linearGradient>
<linearGradient id="paint10_linear_1371_69" x1="41.3266" y1="37.1975" x2="36.9933" y2="41.4442" gradientUnits="userSpaceOnUse">
<stop stop-color="#DA3276"/>
<stop offset="1" stop-color="#ED722E"/>
</linearGradient>
<clipPath id="clip0_1371_69">
<rect width="128" height="128" fill="white"/>
</clipPath>
</defs>
</svg>
