<svg width="128" height="128" viewBox="0 0 128 128" fill="none" xmlns="http://www.w3.org/2000/svg">
<path d="M52.3683 26.7003L49.7443 39.4427C49.5858 40.2118 49.8923 41.0025 50.5275 41.464C51.1628 41.9255 52.0093 41.9728 52.692 41.5843L64 35.1512L75.3077 41.5843C75.6155 41.7593 75.9565 41.8457 76.2965 41.8457C76.7108 41.8457 77.1235 41.7173 77.4723 41.4637C78.1077 41.0023 78.414 40.2115 78.2555 39.4425L75.6318 26.7L85.2442 17.9335C85.8245 17.4043 86.0413 16.5845 85.7988 15.8378C85.5563 15.091 84.8988 14.5553 84.1182 14.468L71.1888 13.0258L65.822 1.175C65.498 0.4595 64.7853 0 64 0C63.2148 0 62.502 0.4595 62.178 1.175L56.811 13.0262L43.8815 14.4685C43.101 14.5555 42.4438 15.0913 42.201 15.8383C41.9583 16.5853 42.1753 17.405 42.7555 17.934L52.3683 26.7003ZM58.3853 16.8752C59.0865 16.797 59.6945 16.3553 59.9855 15.7128L64 6.848L68.0145 15.7125C68.3055 16.355 68.9135 16.7967 69.6148 16.875L79.2862 17.9538L72.096 24.511C71.5748 24.9862 71.3425 25.7013 71.4847 26.392L73.4475 35.9235L64.9893 31.1115C64.6825 30.9373 64.3415 30.85 64.0003 30.85C63.659 30.85 63.318 30.9373 63.0113 31.1115L54.553 35.9235L56.5158 26.3923C56.658 25.7013 56.4258 24.9865 55.9045 24.5112L48.7143 17.954L58.3853 16.8752ZM11.0548 44.2837C10.8963 45.053 11.2028 45.8435 11.838 46.305C12.4733 46.7665 13.3198 46.8138 14.0025 46.4253L22.652 41.5045L31.3015 46.4253C31.6093 46.6003 31.9503 46.6867 32.2903 46.6867C32.7045 46.6867 33.1173 46.5583 33.466 46.3047C34.1015 45.8433 34.4078 45.0525 34.2493 44.2835L32.2423 34.5368L39.5948 27.8312C40.175 27.302 40.3918 26.4823 40.1493 25.7355C39.9068 24.9888 39.2493 24.453 38.4688 24.3657L28.579 23.2625L24.474 14.198C24.15 13.4827 23.4375 13.023 22.652 13.023C21.8665 13.023 21.154 13.4825 20.83 14.198L16.7248 23.263L6.835 24.366C6.0545 24.453 5.39725 24.9888 5.1545 25.7358C4.91175 26.4827 5.12875 27.3025 5.709 27.8315L13.0615 34.537L11.0548 44.2837ZM11.6675 27.852L18.299 27.1122C19.0003 27.034 19.6083 26.5923 19.8993 25.9498L22.652 19.8713L25.4048 25.9495C25.6958 26.592 26.3038 27.0337 27.005 27.112L33.6365 27.8517L28.7063 32.348C28.185 32.8235 27.9528 33.5382 28.095 34.229L29.4408 40.7648L23.641 37.4652C23.3343 37.2907 22.9933 37.2038 22.652 37.2038C22.3108 37.2038 21.9698 37.291 21.663 37.4652L15.8633 40.765L17.209 34.2293C17.3513 33.5383 17.119 32.8235 16.5978 32.3483L11.6675 27.852ZM122.845 25.7358C122.603 24.989 121.945 24.4532 121.165 24.366L111.275 23.2628L107.17 14.198C106.846 13.4827 106.133 13.023 105.348 13.023C104.562 13.023 103.85 13.4825 103.526 14.198L99.4208 23.263L89.531 24.3662C88.7505 24.4532 88.0933 24.989 87.8505 25.736C87.6077 26.483 87.8247 27.3028 88.405 27.8318L95.7575 34.5373L93.7505 44.284C93.592 45.0532 93.8985 45.8438 94.5338 46.3052C95.169 46.7667 96.0155 46.814 96.6982 46.4255L105.348 41.5047L113.997 46.4255C114.305 46.6005 114.646 46.687 114.986 46.687C115.4 46.687 115.813 46.5585 116.162 46.305C116.797 45.8435 117.104 45.0527 116.945 44.2837L114.938 34.537L122.29 27.8315C122.871 27.3022 123.088 26.4825 122.845 25.7358ZM111.402 32.3483C110.881 32.8237 110.649 33.5385 110.791 34.2293L112.137 40.765L106.337 37.4655C106.03 37.291 105.689 37.204 105.348 37.204C105.007 37.204 104.666 37.2912 104.359 37.4655L98.5592 40.765L99.905 34.2293C100.047 33.5383 99.815 32.8235 99.2937 32.3483L94.3635 27.852L100.995 27.1125C101.696 27.0342 102.304 26.5925 102.595 25.95L105.348 19.8715L108.101 25.95C108.392 26.5925 109 27.0342 109.701 27.1125L116.332 27.8522L111.402 32.3483ZM106.684 53.1625C106.262 52.0762 104.897 51.5743 103.875 52.122L93.7975 57.516C91.4893 58.7172 89.1048 57.8512 85.4062 56.3392C80.3398 54.2682 73.4795 51.4713 64.5468 57.011C58.0513 53.1678 52.5025 54.475 47.9958 55.5395C44.5273 56.359 41.7878 57.006 39.1388 55.5153C39.092 55.489 39.0445 55.4645 38.9958 55.4422L25.8308 49.3688C24.8333 48.9085 23.6505 49.3395 23.183 50.334C23.183 50.334 9.459 79.534 9.43275 79.5902C8.9515 80.614 9.44775 81.8727 10.4933 82.2952C10.6705 82.3717 22.7738 87.8197 23.9278 88.268C24.895 88.6432 25.1958 89.754 25.61 92.024C25.8315 93.2388 26.0595 94.484 26.5713 95.6165L24.5998 99.3025C22.5893 103.062 24.0118 107.756 27.771 109.766C28.9288 110.385 30.1753 110.679 31.4045 110.679C31.5723 110.679 31.7398 110.673 31.9065 110.662C31.2698 113.908 32.7805 117.332 35.846 118.972C38.097 120.176 41.2323 120.095 43.4275 118.806C44.0915 120.381 45.2768 121.748 46.898 122.615C49.038 123.76 51.6505 123.811 53.844 122.784C54.4563 124.566 55.7148 126.132 57.5043 127.09C60.8553 128.882 65.2293 127.89 67.4553 124.745L70.176 126.241C71.3548 126.889 72.63 127.197 73.889 127.197C76.6192 127.197 79.2702 125.75 80.6765 123.193C81.5732 121.562 81.816 119.743 81.493 118.04C84.0652 117.894 86.5105 116.47 87.841 114.051C88.5955 112.679 88.8822 111.169 88.7565 109.705C89.117 109.756 89.4788 109.785 89.8392 109.785C92.5695 109.785 95.2203 108.337 96.6265 105.781C97.4808 104.228 97.7345 102.497 97.4695 100.858C98.1295 100.845 98.794 100.75 99.449 100.564C101.464 99.992 103.126 98.671 104.13 96.8453C104.989 95.2845 105.239 93.5393 104.961 91.8863L117.543 86.5218C118.535 86.0988 119.013 84.965 118.623 83.9593C118.622 83.9595 106.722 53.261 106.684 53.1625ZM29.657 106.24C27.8428 105.269 27.1563 103.004 28.1265 101.189C28.1265 101.189 31.7638 94.3887 31.766 94.3845C32.721 92.5993 35.0375 91.903 36.8193 92.8558C38.6035 93.8098 39.3003 96.1213 38.347 97.9043L34.7008 104.72C33.727 106.526 31.4678 107.208 29.657 106.24ZM40.5725 115.719C39.6143 116.01 38.6058 115.913 37.7323 115.446C35.918 114.475 35.2315 112.21 36.2018 110.395C36.2018 110.395 41.1405 101.162 41.1428 101.158C42.0665 99.4313 44.4613 98.7235 46.1865 99.646C47.9693 100.599 48.667 102.912 47.714 104.695L42.7825 113.915C42.3153 114.788 41.5305 115.429 40.5725 115.719ZM51.6243 119.362C50.6658 119.652 49.6573 119.555 48.7843 119.088C46.97 118.118 46.2835 115.852 47.2538 114.037L51.2413 106.581V106.581C51.7083 105.707 52.493 105.067 53.451 104.776C54.4093 104.486 55.4183 104.584 56.2945 105.052C57.1635 105.515 57.8023 106.297 58.0933 107.254C58.3855 108.216 58.2893 109.227 57.822 110.101L53.8343 117.558C53.3673 118.431 52.5823 119.072 51.6243 119.362ZM62.2303 123.837C61.272 124.127 60.2635 124.03 59.39 123.563C57.5758 122.592 56.8893 120.327 57.8595 118.512C57.8595 118.512 61.3468 111.992 61.349 111.987C62.3053 110.199 64.6145 109.502 66.402 110.459C68.1543 111.397 68.8895 113.712 67.9295 115.507L64.44 122.033C63.9735 122.906 63.1885 123.546 62.2303 123.837ZM77.171 121.266C76.1795 123.068 73.9062 123.728 72.103 122.737L69.396 121.248L71.4573 117.393C71.9683 116.438 72.2645 115.405 72.3447 114.352L75.677 116.185L75.695 116.195C77.4977 117.193 78.1597 119.468 77.171 121.266ZM100.624 94.9177C99.6687 96.6555 97.3122 97.3802 95.5768 96.3997L81.3665 88.3733C80.405 87.8298 79.1848 88.1693 78.6415 89.131C78.0983 90.0927 78.4375 91.3128 79.3992 91.856C79.3992 91.856 91.5837 98.748 91.6328 98.7755C93.4352 99.7902 94.1028 102.068 93.121 103.853C92.1295 105.656 89.856 106.316 88.0533 105.324L72.574 96.6735C71.6115 96.1318 70.3917 96.4727 69.85 97.4355C69.3083 98.3983 69.6495 99.6178 70.612 100.16L82.8475 107.046C84.65 108.061 85.3175 110.338 84.3357 112.123C83.3442 113.926 81.071 114.586 79.268 113.594L70.5705 108.785C69.9433 108.033 69.173 107.401 68.2865 106.929C66.471 105.958 64.3803 105.755 62.3998 106.354C62.2743 106.393 62.1505 106.434 62.028 106.477C61.9958 106.348 61.9603 106.219 61.9213 106.09C61.319 104.11 59.989 102.487 58.1788 101.523C56.3635 100.552 54.2725 100.347 52.292 100.948C52.1665 100.986 52.0425 101.027 51.92 101.071C51.8878 100.941 51.8523 100.812 51.8133 100.684C51.211 98.7035 49.881 97.0807 48.0705 96.1165C46.3755 95.21 44.491 95.0035 42.7475 95.3923C42.6968 94.8897 42.5965 94.3883 42.446 93.8932C41.8438 91.9128 40.5135 90.29 38.7033 89.326C36.8878 88.355 34.7973 88.1505 32.8165 88.751C31.5133 89.146 30.3653 89.8587 29.4548 90.816C29.0268 88.5395 28.319 85.6808 25.3755 84.538C24.224 84.0908 17.9513 81.2643 14.5815 79.7458C14.3383 79.6363 14.1183 79.537 13.9193 79.4475L25.9585 53.8317L37.2508 59.0412C41.2355 61.2457 45.1393 60.3235 48.9155 59.4315C52.821 58.509 56.5433 57.6297 60.9388 59.626C59.916 60.4748 58.8973 61.4077 57.8923 62.4235C54.0215 66.335 49.074 70.0283 43.1875 73.4003C42.6948 73.6825 42.3453 74.1608 42.2263 74.716C42.1073 75.2713 42.2295 75.8507 42.563 76.3102C50.292 86.9605 59.435 83.2588 66.7818 80.2848C71.6735 78.3043 75.8982 76.594 79.3047 78.5355L99.1277 89.834C100.929 90.8625 101.601 93.1423 100.624 94.9177ZM103.318 88.2383C102.721 87.4987 101.98 86.857 101.108 86.36L81.285 75.0615C79.5503 74.0728 77.7633 73.6817 75.9475 73.6817C72.435 73.6817 68.8175 75.146 65.2803 76.578C58.5608 79.2983 52.6858 81.677 47.195 75.6815C52.5183 72.4523 57.066 68.9455 60.735 65.238C62.3505 63.6052 63.9915 62.2095 65.612 61.0895C73.3563 55.7355 78.7125 57.9248 83.8928 60.0423C87.6688 61.5858 91.5738 63.182 95.664 61.0537L103.771 56.715L114.193 83.6015L103.318 88.2383Z" fill="url(#paint0_linear_1371_103)"/>
<defs>
<linearGradient id="paint0_linear_1371_103" x1="113.362" y1="6.69632" x2="2.31547" y2="106.941" gradientUnits="userSpaceOnUse">
<stop stop-color="#DA3276"/>
<stop offset="1" stop-color="#ED722E"/>
</linearGradient>
</defs>
</svg>
