<svg width="122" height="128" viewBox="0 0 122 128" fill="none" xmlns="http://www.w3.org/2000/svg">
<path d="M79.5248 40.7068C67.0765 22.3929 50.4506 12.6593 41.7437 18.6232C40.785 19.2984 39.9519 20.1363 39.2822 21.0988C39.2822 21.1692 19.1257 61.9604 19.1257 61.9604L7.87297 69.5841C6.14551 70.7568 4.66602 72.2583 3.519 74.0028C2.37198 75.7474 1.57991 77.7009 1.18804 79.7517C0.796175 81.8024 0.812188 83.9103 1.23517 85.9549C1.65814 87.9995 2.4798 89.9407 3.65319 91.6676L4.15956 92.4131C6.53138 95.8681 10.1697 98.2488 14.2853 99.0388C18.401 99.8287 22.6622 98.9643 26.1446 96.6329L44.2193 123.26C46.8778 126.537 51.9837 129.8 58.2853 125.96C59.4016 125.237 60.3539 124.287 61.0807 123.172C61.8075 122.058 62.2927 120.803 62.5051 119.49C62.7596 118.184 62.7527 116.84 62.4847 115.536C62.2168 114.232 61.693 112.995 60.9437 111.894L45.0211 88.4043C45.0211 88.4043 82.6615 85.4083 82.8022 85.352C83.9774 85.1061 85.0917 84.6278 86.0796 83.9454C90.5525 80.9072 92.1561 74.5353 90.6088 65.9973C89.2163 58.1344 85.2637 49.2307 79.5248 40.7068ZM8.25275 89.6421L7.74638 88.8966C6.9368 87.7048 6.37023 86.365 6.0791 84.9538C5.78797 83.5428 5.778 82.0881 6.04975 80.6731C6.32151 79.2582 6.86965 77.9107 7.66282 76.7078C8.45598 75.505 9.47858 74.4704 10.6721 73.6632L20.3917 67.0522L33.2198 85.9428L23.5002 92.5538C22.3081 93.3644 20.9679 93.9321 19.5562 94.2245C18.1446 94.5169 16.6891 94.5283 15.2731 94.2578C13.857 93.9874 12.5082 93.4406 11.3036 92.6486C10.099 91.8566 9.06229 90.835 8.25275 89.6421ZM56.8928 114.665C57.6615 115.809 57.9452 117.211 57.6815 118.564C57.4178 119.917 56.6283 121.11 55.4862 121.881C54.3401 122.651 52.9358 122.935 51.5807 122.671C50.2257 122.408 49.0303 121.618 48.2563 120.475L30.2378 93.9322L37.4818 89.0092L39.3947 88.8544L56.8928 114.665ZM37.8756 84.0298L23.8941 63.4373L37.2286 36.2479C38.5226 43.8857 42.3064 52.9582 48.3547 61.8619C54.4031 70.7657 61.436 77.6298 68.047 81.6527L37.8756 84.0298ZM79.3701 80.7525C72.6466 80.3164 61.7033 72.7349 52.4339 59.0769C43.1644 45.4188 40.1543 32.4922 42.222 26.0641C42.5954 24.8575 43.3405 23.7998 44.351 23.042C45.3614 22.2841 46.5855 21.865 47.8484 21.8443C54.5156 21.8443 65.8668 29.4681 75.4035 43.5199C80.7767 51.425 84.687 59.6958 85.7561 66.9257C87.8519 80.7525 79.3701 80.7525 79.3701 80.7525Z" fill="url(#paint0_linear_1371_13)"/>
<path d="M61.9424 41.2273C60.2195 40.8889 58.4463 40.8975 56.7267 41.2525C55.0071 41.6076 53.3756 42.3019 51.9275 43.295C51.6606 43.4797 51.4327 43.7152 51.2567 43.988C51.0808 44.2608 50.9604 44.5655 50.9023 44.8849C50.8441 45.2042 50.8495 45.5319 50.918 45.8492C50.9865 46.1665 51.1168 46.4672 51.3016 46.7341C51.4863 47.001 51.7218 47.2289 51.9946 47.4048C52.2674 47.5807 52.5721 47.7012 52.8915 47.7593C53.2108 47.8174 53.5385 47.8121 53.8558 47.7436C54.1731 47.6751 54.4738 47.5447 54.7407 47.36C55.6578 46.7375 56.6885 46.3018 57.7741 46.0776C58.8596 45.8535 59.9786 45.8453 61.0673 46.0537C62.156 46.262 63.1929 46.6827 64.119 47.2918C65.0451 47.9009 65.8421 48.6864 66.4646 49.6035C67.0871 50.5207 67.5229 51.5514 67.747 52.6369C67.9712 53.7225 67.9793 54.8415 67.771 55.9302C67.5627 57.0188 67.1419 58.0558 66.5328 58.9819C65.9238 59.908 65.1382 60.705 64.2211 61.3275C63.7887 61.6261 63.4632 62.0553 63.2922 62.5523C63.1212 63.0492 63.1138 63.5878 63.271 64.0893C63.4282 64.5908 63.7418 65.0288 64.1658 65.3392C64.5899 65.6496 65.1022 65.8162 65.6277 65.8145C66.1291 65.8239 66.6209 65.6764 67.0343 65.3926C69.2221 63.9105 70.9208 61.8125 71.9152 59.3642C72.9096 56.9159 73.155 54.2276 72.6202 51.6397C72.0855 49.0519 70.7947 46.681 68.9114 44.8274C67.028 42.9737 64.6369 41.7208 62.0409 41.2273H61.9424Z" fill="url(#paint1_linear_1371_13)"/>
<path d="M82.5631 23.5885H82.8022C83.411 23.5883 83.9982 23.3624 84.4502 22.9545C84.9022 22.5467 85.1871 21.9858 85.2497 21.3802L87.1486 2.92567C87.1918 2.59935 87.1691 2.26767 87.0819 1.95026C86.9947 1.63286 86.8447 1.33617 86.6408 1.07776C86.4369 0.819339 86.1832 0.604445 85.8948 0.445787C85.6064 0.287129 85.2891 0.187929 84.9616 0.154058C84.6342 0.120186 84.3033 0.15233 83.9885 0.248589C83.6738 0.344847 83.3815 0.503264 83.129 0.714467C82.8765 0.925671 82.6689 1.18537 82.5186 1.4782C82.3682 1.77103 82.2781 2.09104 82.2536 2.4193L80.3688 20.8879C80.3019 21.5369 80.4955 22.186 80.9069 22.6924C81.3184 23.1988 81.9141 23.5211 82.5631 23.5885Z" fill="url(#paint2_linear_1371_13)"/>
<path d="M114.38 19.7907C114.019 19.2459 113.457 18.8662 112.816 18.7344C112.176 18.6026 111.509 18.7295 110.962 19.0874L93.8158 30.3401C93.3706 30.6341 93.0329 31.0648 92.8537 31.5673C92.6745 32.0699 92.6633 32.617 92.822 33.1264C92.9807 33.6358 93.3006 34.0798 93.7335 34.3917C94.1665 34.7035 94.689 34.8662 95.2224 34.8553C95.72 34.8668 96.2097 34.7296 96.629 34.4615L113.775 23.2087C114.307 22.8345 114.669 22.2649 114.783 21.6245C114.896 20.984 114.751 20.3248 114.38 19.7907Z" fill="url(#paint3_linear_1371_13)"/>
<path d="M119.627 49.8355L99.6813 46.2487C99.0378 46.1331 98.3747 46.2778 97.8379 46.6511C97.3011 47.0243 96.9346 47.5955 96.8189 48.239C96.7033 48.8826 96.848 49.5457 97.2213 50.0825C97.5945 50.6193 98.1657 50.9858 98.8092 51.1015L118.741 54.6883H119.177C119.804 54.7066 120.414 54.4847 120.883 54.068C121.353 53.6513 121.645 53.0712 121.7 52.4462C121.756 51.8212 121.571 51.1986 121.183 50.7055C120.795 50.2124 120.233 49.8862 119.613 49.7933L119.627 49.8355Z" fill="url(#paint4_linear_1371_13)"/>
<defs>
<linearGradient id="paint0_linear_1371_13" x1="83.8454" y1="22.6705" x2="-10.4202" y2="97.9226" gradientUnits="userSpaceOnUse">
<stop stop-color="#DA3276"/>
<stop offset="1" stop-color="#ED722E"/>
</linearGradient>
<linearGradient id="paint1_linear_1371_13" x1="71.1056" y1="42.2792" x2="49.6532" y2="60.9314" gradientUnits="userSpaceOnUse">
<stop stop-color="#DA3276"/>
<stop offset="1" stop-color="#ED722E"/>
</linearGradient>
<linearGradient id="paint2_linear_1371_13" x1="86.6161" y1="1.36787" x2="75.8406" y2="4.43666" gradientUnits="userSpaceOnUse">
<stop stop-color="#DA3276"/>
<stop offset="1" stop-color="#ED722E"/>
</linearGradient>
<linearGradient id="paint3_linear_1371_13" x1="113.023" y1="19.5298" x2="99.4998" y2="37.6487" gradientUnits="userSpaceOnUse">
<stop stop-color="#DA3276"/>
<stop offset="1" stop-color="#ED722E"/>
</linearGradient>
<linearGradient id="paint4_linear_1371_13" x1="119.684" y1="46.6535" x2="115.102" y2="59.8557" gradientUnits="userSpaceOnUse">
<stop stop-color="#DA3276"/>
<stop offset="1" stop-color="#ED722E"/>
</linearGradient>
</defs>
</svg>
