<svg width="122" height="126" viewBox="0 0 122 126" fill="none" xmlns="http://www.w3.org/2000/svg">
<path d="M113.829 0.939453H8.17089C3.78786 0.939453 0.23877 4.50794 0.23877 8.87157V117.109C0.23877 121.492 3.78786 125.061 8.17089 125.061H113.829C118.212 125.061 121.761 121.492 121.761 117.129V8.87157C121.761 4.50794 118.212 0.939453 113.829 0.939453ZM8.17089 4.70188H113.829C116.137 4.70188 118.018 6.58309 118.018 8.89097V22.4279H4.00119V8.87157C4.00119 6.58309 5.86301 4.70188 8.17089 4.70188ZM113.829 121.298H8.17089C5.86301 121.298 3.9818 119.417 3.9818 117.109V26.1904H117.999V117.129C117.999 119.417 116.137 121.298 113.829 121.298Z" fill="url(#paint0_linear_1361_405)"/>
<path d="M101.204 15.4461H105.742C106.789 15.4461 107.623 14.6122 107.623 13.5649C107.623 12.5177 106.789 11.6837 105.742 11.6837H101.204C100.156 11.6837 99.3224 12.5177 99.3224 13.5649C99.3224 14.6122 100.156 15.4461 101.204 15.4461Z" fill="url(#paint1_linear_1361_405)"/>
<path d="M89.2181 15.4461H93.7563C94.8036 15.4461 95.6375 14.6122 95.6375 13.5649C95.6375 12.5177 94.8036 11.6837 93.7563 11.6837H89.2181C88.1708 11.6837 87.3369 12.5177 87.3369 13.5649C87.3369 14.6122 88.1708 15.4461 89.2181 15.4461Z" fill="url(#paint2_linear_1361_405)"/>
<path d="M77.2328 15.4461H81.771C82.8182 15.4461 83.6522 14.6122 83.6522 13.5649C83.6522 12.5177 82.8182 11.6837 81.771 11.6837H77.2328C76.1855 11.6837 75.3516 12.5177 75.3516 13.5649C75.3516 14.6122 76.1855 15.4461 77.2328 15.4461Z" fill="url(#paint3_linear_1361_405)"/>
<path d="M16.6073 15.4461H47.6376C48.6849 15.4461 49.5188 14.6122 49.5188 13.5649C49.5188 12.5177 48.6849 11.6837 47.6376 11.6837H16.6073C15.56 11.6837 14.7261 12.5177 14.7261 13.5649C14.7261 14.6122 15.56 15.4461 16.6073 15.4461Z" fill="url(#paint4_linear_1361_405)"/>
<path d="M16.6073 41.2013H32.7236C33.7709 41.2013 34.6049 40.3673 34.6049 39.3201C34.6049 38.2728 33.7709 37.4388 32.7236 37.4388H16.6073C15.56 37.4388 14.7261 38.2728 14.7261 39.3201C14.7261 40.3673 15.56 41.2013 16.6073 41.2013Z" fill="url(#paint5_linear_1361_405)"/>
<path d="M34.6049 49.0558C34.6049 48.0085 33.7709 47.1746 32.7236 47.1746H16.6073C15.56 47.1746 14.7261 48.0085 14.7261 49.0558C14.7261 50.103 15.56 50.937 16.6073 50.937H32.7236C33.7709 50.937 34.6049 50.103 34.6049 49.0558Z" fill="url(#paint6_linear_1361_405)"/>
<path d="M86.057 30.1467C81.2861 30.1467 76.8061 31.9892 73.4509 35.3637L62.3188 46.5152C56.8691 51.9649 55.5697 60.1879 58.9637 66.9758L54.9879 71.0292C52.5637 69.7879 49.8679 69.1092 47.0946 69.1092C42.3237 69.1092 37.8631 70.971 34.5079 74.3455L23.3758 85.4776C20.0206 88.8134 18.1782 93.274 18.1782 98.0449C18.1782 102.816 20.0206 107.276 23.3758 110.632C26.7116 113.987 31.1916 115.849 35.9625 115.849C40.7334 115.849 45.194 114.006 48.5491 110.651L59.7007 99.4995C63.0558 96.1249 64.8982 91.6449 64.8982 86.8934C64.8982 84.2364 64.2582 81.6376 63.1334 79.2716L67.2449 75.0825C69.5916 76.2267 72.2097 76.8667 74.9443 76.8861C79.6764 76.8861 84.1564 75.0437 87.531 71.6692L98.6631 60.5176C102.038 57.1431 103.899 52.6631 103.899 47.9116C103.899 43.1601 102.038 38.6995 98.6631 35.3249C95.2885 32.0085 90.8279 30.1467 86.057 30.1467ZM62.6097 68.6243L65.2667 65.8898L71.6473 59.3734C72.0546 58.9661 72.5782 58.7722 73.1019 58.7722C73.6061 58.7722 74.1297 58.9661 74.5176 59.354C74.9055 59.7419 75.1188 60.2461 75.1382 60.7892C75.1382 61.3322 74.9443 61.8364 74.5564 62.2243L70.3091 66.5686L65.48 71.4946V71.514L55.3758 81.8316L53.5528 83.6934L50.8764 86.4279C50.12 87.2037 48.7819 87.2231 48.0061 86.4667C47.6182 86.0788 47.4049 85.5746 47.3855 85.0316C47.3855 84.4886 47.5794 83.9843 47.9673 83.577L62.571 68.6631C62.5903 68.6437 62.6097 68.6243 62.6097 68.6243ZM77.1746 56.6582C74.9831 54.5249 71.5503 54.4861 69.2813 56.4837C69.5722 55.8243 69.9794 55.2231 70.5031 54.6995L81.6546 43.5673C83.9819 41.2207 88.0934 41.2207 90.44 43.5673C91.6231 44.7504 92.2825 46.3019 92.2825 47.9504C92.2825 49.6182 91.6425 51.1892 90.4594 52.3528L79.3079 63.5043C78.7067 64.1055 78.0085 64.5516 77.2522 64.8619L77.2716 64.8425C78.3576 63.737 78.9394 62.2825 78.92 60.731C78.9007 59.1989 78.28 57.7443 77.1746 56.6582ZM45.3685 89.1237C46.4546 90.1904 47.8897 90.7722 49.4219 90.7722C50.5273 90.7722 51.594 90.4425 52.5055 89.8607C52.2146 90.3843 51.8849 90.8885 51.4582 91.3152L40.3261 102.447C39.1625 103.611 37.611 104.251 35.9431 104.251C35.9431 104.251 35.9431 104.251 35.9237 104.251C34.2558 104.251 32.7043 103.592 31.5406 102.428C29.1164 100.004 29.1164 96.0667 31.5406 93.6619L42.6922 82.5298C43.3903 81.8316 44.2631 81.3273 45.194 81.0364C44.1661 82.1225 43.6037 83.5382 43.6231 85.051C43.6425 86.6025 44.2631 88.0376 45.3685 89.1237ZM60.2825 82.1807C60.8255 83.674 61.1164 85.2643 61.1164 86.9128C61.1164 90.6558 59.6619 94.1855 57.0049 96.8619L45.8728 107.994C43.2352 110.632 39.7055 112.086 35.9431 112.086C32.1806 112.086 28.651 110.632 26.0134 107.975C23.3564 105.318 21.9019 101.788 21.9019 98.0449C21.9019 94.3019 23.3564 90.7722 26.0134 88.1346L37.1649 76.9831C39.8025 74.3261 43.3322 72.8522 47.0946 72.8522C48.8788 72.8522 50.6049 73.1819 52.2146 73.8219L48.9952 77.0995C48.3746 76.9831 47.7346 76.9055 47.0752 76.9055C44.4182 76.9055 41.9164 77.9528 40.0352 79.834L28.9031 90.9661C25.0243 94.8449 25.0243 101.167 28.9031 105.046C30.7843 106.927 33.2861 107.975 35.9431 107.975H35.9625C38.6194 107.975 41.1213 106.947 43.0025 105.066L54.1346 93.9334C56.0158 92.0522 57.0631 89.5504 57.0631 86.874C57.0631 86.4086 57.0243 85.9819 56.9661 85.5358L59.177 83.2861L60.2825 82.1807ZM95.9867 57.8995L84.8546 69.051C82.1782 71.7079 78.6485 73.1625 74.9249 73.1625C73.1988 73.1431 71.5504 72.8522 70.0182 72.2704L73.2764 68.954C76.457 69.497 79.7152 68.4498 81.9843 66.1807L93.1358 55.0292C95.017 53.1479 96.0643 50.6267 96.0643 47.9698C96.0643 45.3128 95.017 42.811 93.1164 40.9298C91.2352 39.0485 88.7334 38.0013 86.0764 38.0013C83.4 38.0013 80.8982 39.0485 79.017 40.9298L67.8655 52.0813C65.5964 54.3698 64.5879 57.6085 65.0922 60.7698L62.8619 63.0001L61.7952 64.0861C59.8364 59.0049 61 53.1479 64.9952 49.1722L76.1273 38.0207C78.7843 35.3637 82.314 33.9092 86.0764 33.9092C89.8194 33.9092 93.3491 35.3637 96.0061 38.0207C98.6631 40.6776 100.137 44.2073 100.137 47.9504C100.118 51.6934 98.6437 55.2231 95.9867 57.8995Z" fill="url(#paint7_linear_1361_405)"/>
<defs>
<linearGradient id="paint0_linear_1361_405" x1="111.884" y1="7.43402" x2="3.71185" y2="111.223" gradientUnits="userSpaceOnUse">
<stop stop-color="#DA3276"/>
<stop offset="1" stop-color="#ED722E"/>
</linearGradient>
<linearGradient id="paint1_linear_1361_405" x1="106.948" y1="11.8806" x2="104.448" y2="17.2875" gradientUnits="userSpaceOnUse">
<stop stop-color="#DA3276"/>
<stop offset="1" stop-color="#ED722E"/>
</linearGradient>
<linearGradient id="paint2_linear_1361_405" x1="94.9629" y1="11.8806" x2="92.4621" y2="17.2875" gradientUnits="userSpaceOnUse">
<stop stop-color="#DA3276"/>
<stop offset="1" stop-color="#ED722E"/>
</linearGradient>
<linearGradient id="paint3_linear_1361_405" x1="82.9775" y1="11.8806" x2="80.4767" y2="17.2875" gradientUnits="userSpaceOnUse">
<stop stop-color="#DA3276"/>
<stop offset="1" stop-color="#ED722E"/>
</linearGradient>
<linearGradient id="paint4_linear_1361_405" x1="46.691" y1="11.8806" x2="45.9754" y2="18.3652" gradientUnits="userSpaceOnUse">
<stop stop-color="#DA3276"/>
<stop offset="1" stop-color="#ED722E"/>
</linearGradient>
<linearGradient id="paint5_linear_1361_405" x1="32.9892" y1="37.6357" x2="31.7671" y2="43.9633" gradientUnits="userSpaceOnUse">
<stop stop-color="#DA3276"/>
<stop offset="1" stop-color="#ED722E"/>
</linearGradient>
<linearGradient id="paint6_linear_1361_405" x1="32.9892" y1="47.3714" x2="31.7671" y2="53.699" gradientUnits="userSpaceOnUse">
<stop stop-color="#DA3276"/>
<stop offset="1" stop-color="#ED722E"/>
</linearGradient>
<linearGradient id="paint7_linear_1361_405" x1="96.9323" y1="34.631" x2="22.1936" y2="107.891" gradientUnits="userSpaceOnUse">
<stop stop-color="#DA3276"/>
<stop offset="1" stop-color="#ED722E"/>
</linearGradient>
</defs>
</svg>
