<svg width="128" height="128" viewBox="0 0 128 128" fill="none" xmlns="http://www.w3.org/2000/svg">
<path d="M106 70V2C106 0.896 105.106 0 104 0H24C22.894 0 22 0.896 22 2V70C22 71.104 22.894 72 24 72H40H64H88H104C105.106 72 106 71.104 106 70ZM102 4V16H26V4H102ZM26 68V20H102V68H26Z" fill="url(#paint0_linear_1371_19)"/>
<path d="M30 8H34V12H30V8Z" fill="url(#paint1_linear_1371_19)"/>
<path d="M38 8H42V12H38V8Z" fill="url(#paint2_linear_1371_19)"/>
<path d="M46 8H50V12H46V8Z" fill="url(#paint3_linear_1371_19)"/>
<path d="M68 8H98V12H68V8Z" fill="url(#paint4_linear_1371_19)"/>
<path d="M64 24C52.972 24 44 32.972 44 44C44 55.028 52.972 64 64 64C75.028 64 84 55.028 84 44C84 32.972 75.028 24 64 24ZM60.082 53.58C62.686 53.288 65.314 53.288 67.918 53.58C66.646 56.302 65.07 58.22 64 59.308C62.928 58.22 61.354 56.3 60.082 53.58ZM58.714 49.75C58.422 48.6 58.23 47.338 58.12 46H69.882C69.77 47.338 69.58 48.6 69.288 49.75C65.776 49.27 62.224 49.27 58.714 49.75ZM67.918 34.42C65.314 34.712 62.686 34.712 60.082 34.42C61.354 31.698 62.93 29.78 64 28.692C65.072 29.78 66.646 31.7 67.918 34.42ZM64 38.654C65.768 38.654 67.532 38.49 69.286 38.25C69.578 39.4 69.77 40.662 69.88 42H58.12C58.232 40.662 58.422 39.4 58.714 38.25C60.468 38.49 62.232 38.654 64 38.654ZM54.082 42H48.14C48.41 39.858 49.1 37.848 50.132 36.054C51.652 36.634 53.198 37.12 54.77 37.502C54.43 38.888 54.194 40.392 54.082 42ZM54.082 46C54.196 47.608 54.43 49.112 54.77 50.498C53.2 50.88 51.654 51.364 50.132 51.946C49.1 50.152 48.408 48.144 48.14 46H54.082ZM73.918 46H79.86C79.59 48.142 78.9 50.152 77.868 51.946C76.348 51.366 74.802 50.88 73.23 50.498C73.57 49.112 73.806 47.608 73.918 46ZM73.918 42C73.804 40.392 73.57 38.888 73.23 37.502C74.8 37.12 76.346 36.636 77.868 36.054C78.9 37.848 79.592 39.856 79.86 42H73.918ZM75.346 32.732C74.238 33.112 73.116 33.434 71.98 33.7C71.196 31.824 70.27 30.248 69.356 28.94C71.63 29.754 73.676 31.052 75.346 32.732ZM58.644 28.942C57.73 30.248 56.804 31.826 56.02 33.702C54.884 33.436 53.762 33.114 52.654 32.734C54.324 31.052 56.37 29.754 58.644 28.942ZM52.654 55.268C53.762 54.888 54.884 54.566 56.02 54.3C56.804 56.176 57.73 57.752 58.644 59.06C56.37 58.246 54.324 56.948 52.654 55.268ZM69.356 59.058C70.27 57.752 71.196 56.174 71.98 54.298C73.116 54.564 74.238 54.886 75.346 55.266C73.676 56.948 71.63 58.246 69.356 59.058Z" fill="url(#paint5_linear_1371_19)"/>
<path d="M56.586 78.586L59.414 81.414L62 78.828V92.202C57.442 93.132 54 97.17 54 102C54 104.72 55.098 107.184 56.866 108.988C51.682 111.042 48 116.094 48 122V126C48 127.104 48.894 128 50 128H78C79.106 128 80 127.104 80 126V122C80 116.094 76.318 111.042 71.134 108.988C72.902 107.184 74 104.72 74 102C74 97.172 70.558 93.132 66 92.202V78.828L68.586 81.414L71.414 78.586L65.414 72.586C65.024 72.196 64.512 72 64 72C63.488 72 62.976 72.196 62.586 72.586L56.586 78.586ZM76 122V124H52V122C52 116.486 56.486 112 62 112H66C71.514 112 76 116.486 76 122ZM70 102C70 105.308 67.308 108 64 108C60.692 108 58 105.308 58 102C58 98.692 60.692 96 64 96C67.308 96 70 98.692 70 102Z" fill="url(#paint6_linear_1371_19)"/>
<path d="M115.134 108.988C116.902 107.184 118 104.72 118 102C118 97.172 114.558 93.132 110 92.202V90C110 86.692 107.308 84 104 84H92C90.896 84 90 83.102 90 82V78.828L92.586 81.414L95.414 78.586L89.414 72.586C89.024 72.196 88.512 72 88 72C87.488 72 86.976 72.196 86.586 72.586L80.586 78.586L83.414 81.414L86 78.828V82C86 85.308 88.692 88 92 88H104C105.104 88 106 88.898 106 90V92.202C101.442 93.132 98 97.17 98 102C98 104.72 99.098 107.184 100.866 108.988C95.682 111.042 92 116.094 92 122V126C92 127.104 92.894 128 94 128H122C123.106 128 124 127.104 124 126V122C124 116.094 120.318 111.042 115.134 108.988ZM108 96C111.308 96 114 98.692 114 102C114 105.308 111.308 108 108 108C104.692 108 102 105.308 102 102C102 98.692 104.692 96 108 96ZM120 124H96V122C96 116.486 100.486 112 106 112H110C115.514 112 120 116.486 120 122V124Z" fill="url(#paint7_linear_1371_19)"/>
<path d="M32.586 78.586L35.414 81.414L38 78.828V82C38 83.102 37.104 84 36 84H24C20.692 84 18 86.692 18 90V92.202C13.442 93.132 10 97.172 10 102C10 104.72 11.098 107.184 12.866 108.988C7.682 111.042 4 116.094 4 122V126C4 127.104 4.894 128 6 128H34C35.106 128 36 127.104 36 126V122C36 116.094 32.318 111.042 27.134 108.988C28.902 107.184 30 104.72 30 102C30 97.172 26.558 93.132 22 92.202V90C22 88.898 22.896 88 24 88H36C39.308 88 42 85.308 42 82V78.828L44.586 81.414L47.414 78.586L41.414 72.586C41.024 72.196 40.512 72 40 72C39.488 72 38.976 72.196 38.586 72.586L32.586 78.586ZM32 122V124H8V122C8 116.486 12.486 112 18 112H22C27.514 112 32 116.486 32 122ZM26 102C26 105.308 23.308 108 20 108C16.692 108 14 105.308 14 102C14 98.692 16.692 96 20 96C23.308 96 26 98.692 26 102Z" fill="url(#paint8_linear_1371_19)"/>
<defs>
<linearGradient id="paint0_linear_1371_19" x1="99.1728" y1="3.76735" x2="36.9298" y2="74.9318" gradientUnits="userSpaceOnUse">
<stop stop-color="#DA3276"/>
<stop offset="1" stop-color="#ED722E"/>
</linearGradient>
<linearGradient id="paint1_linear_1371_19" x1="33.6749" y1="8.2093" x2="30.1866" y2="11.6278" gradientUnits="userSpaceOnUse">
<stop stop-color="#DA3276"/>
<stop offset="1" stop-color="#ED722E"/>
</linearGradient>
<linearGradient id="paint2_linear_1371_19" x1="41.6749" y1="8.2093" x2="38.1866" y2="11.6278" gradientUnits="userSpaceOnUse">
<stop stop-color="#DA3276"/>
<stop offset="1" stop-color="#ED722E"/>
</linearGradient>
<linearGradient id="paint3_linear_1371_19" x1="49.6749" y1="8.2093" x2="46.1866" y2="11.6278" gradientUnits="userSpaceOnUse">
<stop stop-color="#DA3276"/>
<stop offset="1" stop-color="#ED722E"/>
</linearGradient>
<linearGradient id="paint4_linear_1371_19" x1="95.5617" y1="8.2093" x2="94.6296" y2="15.0605" gradientUnits="userSpaceOnUse">
<stop stop-color="#DA3276"/>
<stop offset="1" stop-color="#ED722E"/>
</linearGradient>
<linearGradient id="paint5_linear_1371_19" x1="80.7489" y1="26.093" x2="45.866" y2="60.2783" gradientUnits="userSpaceOnUse">
<stop stop-color="#DA3276"/>
<stop offset="1" stop-color="#ED722E"/>
</linearGradient>
<linearGradient id="paint6_linear_1371_19" x1="77.3991" y1="74.9302" x2="35.752" y2="98.2525" gradientUnits="userSpaceOnUse">
<stop stop-color="#DA3276"/>
<stop offset="1" stop-color="#ED722E"/>
</linearGradient>
<linearGradient id="paint7_linear_1371_19" x1="120.471" y1="74.9302" x2="73.413" y2="110.683" gradientUnits="userSpaceOnUse">
<stop stop-color="#DA3276"/>
<stop offset="1" stop-color="#ED722E"/>
</linearGradient>
<linearGradient id="paint8_linear_1371_19" x1="43.8855" y1="74.9302" x2="-3.17299" y2="110.683" gradientUnits="userSpaceOnUse">
<stop stop-color="#DA3276"/>
<stop offset="1" stop-color="#ED722E"/>
</linearGradient>
</defs>
</svg>
