<svg width="128" height="128" viewBox="0 0 128 128" fill="none" xmlns="http://www.w3.org/2000/svg">
<g clip-path="url(#clip0_1361_372)">
<path d="M43.1375 97.9755C43.105 97.8155 43.0575 97.658 42.995 97.5055C42.9325 97.3555 42.855 97.2105 42.765 97.0755C42.675 96.938 42.57 96.8105 42.455 96.6955C42.34 96.5805 42.2125 96.4755 42.075 96.3855C41.94 96.2955 41.795 96.218 41.6425 96.1555C41.4925 96.093 41.335 96.043 41.175 96.013C40.8525 95.948 40.52 95.948 40.2 96.013C40.04 96.043 39.8825 96.093 39.73 96.1555C39.58 96.218 39.435 96.2955 39.3 96.3855C39.1625 96.4755 39.035 96.5805 38.92 96.6955C38.805 96.8105 38.7 96.938 38.61 97.0755C38.5175 97.2105 38.4425 97.3555 38.38 97.5055C38.3175 97.658 38.2675 97.8155 38.2375 97.9755C38.205 98.1355 38.1875 98.3005 38.1875 98.463C38.1875 98.6255 38.205 98.7905 38.2375 98.9505C38.2675 99.1105 38.3175 99.268 38.38 99.418C38.4425 99.5705 38.5175 99.7155 38.61 99.8505C38.7 99.988 38.805 100.115 38.92 100.23C39.035 100.345 39.1625 100.45 39.3 100.54C39.435 100.631 39.58 100.708 39.73 100.771C39.8825 100.833 40.04 100.883 40.2 100.913C40.36 100.946 40.525 100.963 40.6875 100.963C40.85 100.963 41.015 100.946 41.175 100.913C41.335 100.883 41.4925 100.833 41.6425 100.771C41.795 100.708 41.94 100.63 42.075 100.54C42.2125 100.45 42.34 100.345 42.455 100.23C42.57 100.115 42.675 99.988 42.765 99.8505C42.855 99.7155 42.9325 99.5705 42.995 99.418C43.0575 99.268 43.105 99.1105 43.1375 98.9505C43.17 98.7905 43.1875 98.6255 43.1875 98.463C43.1875 98.3005 43.17 98.1355 43.1375 97.9755Z" fill="url(#paint0_linear_1361_372)"/>
<path d="M114.998 98.7455C114.989 98.7205 114.979 98.6957 114.968 98.6712C112.667 93.287 107.271 91.297 100.884 93.4782L83.467 98.2947C82.46 95.2452 79.9482 92.6502 76.3968 91.3322C76.3747 91.3242 76.3527 91.3162 76.3305 91.3087L57.1852 84.8107C55.5918 82.751 50.6003 77.4805 41.2545 77.4805C34.7233 77.4805 28.9455 81.961 25.64 86.8447H2.5C1.11925 86.8447 0 87.964 0 89.3447V120.864C0 122.245 1.11925 123.364 2.5 123.364H17.3643C18.745 123.364 19.8643 122.245 19.8643 120.864V118.705H26.835C28.2157 118.705 29.335 117.586 29.335 116.205V115.486C33.3985 115.84 34.735 116.611 38.467 118.763C41.337 120.418 45.6748 122.919 53.4863 126.432C53.5225 126.448 53.5592 126.463 53.596 126.478C55.0952 127.068 58.026 127.994 61.6393 127.994C64.1543 127.994 67.0005 127.545 69.922 126.221L108.42 112.437C108.488 112.412 108.556 112.385 108.622 112.354C112.301 110.661 117.784 105.891 114.998 98.7455ZM14.8643 118.364H5V91.8445H14.8643V118.364ZM24.335 113.705H19.8643V91.8445H24.335V113.705ZM106.624 107.768L68.1435 121.546C68.1097 121.558 68.064 121.576 68.0307 121.59C67.997 121.603 67.9632 121.618 67.93 121.633C62.5708 124.096 57.4765 122.622 55.48 121.845C47.9345 118.45 43.9072 116.128 40.9647 114.431C36.8737 112.072 34.9025 110.935 29.335 110.475V90.34C31.7048 86.456 36.3002 82.4802 41.2547 82.4802C49.7513 82.4802 53.3515 88.0065 53.493 88.2295C53.7982 88.726 54.2675 89.1002 54.8192 89.2875L74.688 96.031C77.8613 97.222 79.5383 99.9395 78.7675 102.649C78.4118 103.901 77.5897 104.939 76.4532 105.572C75.3265 106.2 74.024 106.355 72.7825 106.012L50.3843 98.9137C49.0672 98.4965 47.6628 99.2255 47.2458 100.542C46.8285 101.858 47.5575 103.263 48.8737 103.68L71.311 110.79C71.3347 110.798 71.3585 110.805 71.3825 110.812C72.2783 111.067 73.1902 111.193 74.0967 111.193C75.7562 111.193 77.3975 110.77 78.887 109.94C81.1903 108.657 82.8558 106.553 83.5768 104.017C83.6343 103.814 83.6852 103.612 83.7295 103.409L102.5 98.2095C105.211 97.2835 108.77 96.9497 110.354 100.599C111.994 104.883 107.732 107.24 106.624 107.768Z" fill="url(#paint1_linear_1361_372)"/>
<path d="M89.765 32.8858C89.7325 32.7258 89.685 32.5683 89.62 32.4158C89.5575 32.2658 89.4825 32.1208 89.39 31.9858C89.3 31.8483 89.195 31.7208 89.08 31.6058C88.965 31.4908 88.8375 31.3858 88.7 31.2958C88.565 31.2058 88.42 31.1283 88.27 31.0658C88.1175 31.0033 87.96 30.9533 87.8025 30.9233C87.48 30.8583 87.1475 30.8583 86.825 30.9233C86.665 30.9533 86.5075 31.0033 86.3575 31.0658C86.205 31.1283 86.06 31.2058 85.925 31.2958C85.7875 31.3858 85.66 31.4908 85.545 31.6058C85.43 31.7208 85.325 31.8483 85.235 31.9858C85.145 32.1208 85.0675 32.2658 85.005 32.4158C84.9425 32.5683 84.8925 32.7258 84.8625 32.8858C84.83 33.0458 84.8125 33.2108 84.8125 33.3733C84.8125 33.5358 84.83 33.7008 84.8625 33.8608C84.8925 34.0208 84.9425 34.1783 85.005 34.3283C85.0675 34.4808 85.145 34.6258 85.235 34.7608C85.325 34.8983 85.43 35.0258 85.545 35.1408C85.66 35.2558 85.7875 35.3608 85.925 35.4508C86.06 35.5408 86.205 35.6183 86.3575 35.6808C86.5075 35.7433 86.665 35.7908 86.825 35.8233C86.985 35.8558 87.15 35.8733 87.3125 35.8733C87.475 35.8733 87.64 35.8558 87.8025 35.8233C87.96 35.7908 88.1175 35.7433 88.27 35.6808C88.42 35.6183 88.565 35.5408 88.7 35.4508C88.8375 35.3608 88.965 35.2558 89.08 35.1408C89.195 35.0258 89.3 34.8983 89.39 34.7608C89.4825 34.6258 89.5575 34.4808 89.62 34.3283C89.685 34.1783 89.7325 34.0208 89.765 33.8608C89.7975 33.7008 89.8125 33.5358 89.8125 33.3733C89.8125 33.2108 89.7975 33.0458 89.765 32.8858Z" fill="url(#paint2_linear_1361_372)"/>
<path d="M125.5 8.4728H110.636C109.255 8.4728 108.136 9.59205 108.136 10.9728V13.1313H101.165C99.7842 13.1313 98.665 14.2505 98.665 15.6313V16.3508C94.6015 15.996 93.265 15.2255 89.5332 13.0735C86.6632 11.4185 82.3255 8.9173 74.5137 5.40505C74.4775 5.38855 74.441 5.3733 74.4037 5.3588C71.861 4.3583 65.1967 2.3898 58.079 5.61555L48.019 9.21755L39.5392 0.738047C38.563 -0.238203 36.98 -0.238203 36.0037 0.738047L8.16424 28.5773C7.26374 29.478 7.09099 31.0398 8.16424 32.113L55.736 79.6848C56.4972 80.4463 58.2797 80.6766 59.2717 79.6848L84.688 54.2688C85.3487 54.3258 86.0345 54.3565 86.7452 54.3565C93.2767 54.3565 99.0542 49.876 102.359 44.9925H125.5C126.881 44.9925 128 43.8733 128 42.4925V10.9728C128 9.59205 126.881 8.4728 125.5 8.4728ZM37.7712 6.0413L43.4692 11.7393C41.7755 12.7868 39.8172 13.3473 37.7712 13.3473C35.725 13.3473 33.767 12.787 32.0732 11.7393L37.7712 6.0413ZM19.1657 36.0433L13.4677 30.345L19.1657 24.647C20.2132 26.3408 20.7737 28.299 20.7737 30.345C20.7737 32.391 20.2135 34.3493 19.1657 36.0433ZM57.504 74.3813L51.807 68.6843C55.2852 66.5378 59.7222 66.5378 63.2007 68.6843L57.504 74.3813ZM66.8027 65.0828C61.2782 61.0753 53.7297 61.0753 48.2052 65.0828L22.7675 39.6448C24.7197 36.9598 25.7737 33.7345 25.7737 30.345C25.7737 26.9553 24.72 23.7303 22.7675 21.0453L28.4717 15.3413C31.1567 17.2935 34.3817 18.3475 37.7715 18.3475C41.1612 18.3475 44.3862 17.2935 47.0712 15.3413L52.4785 20.7485C51.3117 20.9208 50.174 21.3053 49.113 21.8965C47.321 22.895 45.915 24.3903 45.0395 26.1993C42.2195 26.7215 39.6087 28.0868 37.5607 30.1345C32.0045 35.691 32.0045 44.7318 37.561 50.2883C40.339 53.0663 43.9882 54.4555 47.6377 54.4555C51.287 54.4555 54.9365 53.0665 57.7147 50.2883C59.5222 48.4808 60.7885 46.2593 61.4227 43.8383L69.8637 46.703C68.9135 51.105 69.8867 55.736 72.512 59.3735L66.8027 65.0828ZM51.6032 40.5045C51.6252 40.5125 51.6472 40.5205 51.6695 40.528L56.6685 42.2248C56.291 43.9285 55.4367 45.495 54.1792 46.7528C50.5722 50.3593 44.7032 50.3598 41.0967 46.7528C37.4897 43.146 37.4897 37.2773 41.0967 33.6703C41.9667 32.7998 42.9935 32.1195 44.1122 31.6583C44.5737 35.4988 47.339 38.922 51.6032 40.5045ZM76.1142 55.771C75.1492 54.1985 74.6032 52.4038 74.517 50.572C75.7145 51.4378 77.178 52.286 78.926 52.9593L76.1142 55.771ZM98.6647 41.4958C96.2952 45.3803 91.6997 49.356 86.7452 49.356C85.8182 49.356 84.9495 49.29 84.1372 49.1725C84.134 49.172 84.1307 49.1715 84.1275 49.171C78.7285 48.3868 75.8242 45.3183 74.867 44.1033C74.816 44.0283 74.5987 43.744 74.5665 43.6968C74.2752 43.1763 73.7977 42.7578 73.1887 42.551L53.3117 35.8048C50.1397 34.6143 48.463 31.898 49.2315 29.189C49.232 29.1873 49.2325 29.1855 49.233 29.1838C49.2337 29.1818 49.2342 29.1795 49.2347 29.1775C49.592 27.93 50.4125 26.8953 51.5465 26.2635C52.673 25.6358 53.9752 25.48 55.2172 25.8243L77.6155 32.922C78.932 33.3398 80.337 32.6103 80.754 31.294C81.171 29.9778 80.4422 28.5728 79.126 28.1555L61.3122 22.5105L61.1567 22.355C61.1552 22.3535 61.1537 22.3518 61.152 22.3503L51.9295 13.1278L59.8565 10.2893C59.8832 10.2795 59.9162 10.2673 59.9427 10.2565C59.9495 10.2538 59.9625 10.2488 59.969 10.246C60.003 10.2323 60.0365 10.2178 60.0697 10.2025C65.4287 7.73955 70.5227 9.2138 72.5195 9.9903C80.0652 13.3855 84.0927 15.7078 87.0352 17.4045C91.1262 19.7638 93.0975 20.9005 98.6647 21.3603V41.4958ZM108.136 39.992H103.665V18.1313H108.136V39.992ZM123 39.992H113.136V13.4728H123V39.992Z" fill="url(#paint3_linear_1361_372)"/>
</g>
<defs>
<linearGradient id="paint0_linear_1361_372" x1="42.7811" y1="96.2258" x2="38.4216" y2="100.499" gradientUnits="userSpaceOnUse">
<stop stop-color="#DA3276"/>
<stop offset="1" stop-color="#ED722E"/>
</linearGradient>
<linearGradient id="paint1_linear_1361_372" x1="106.351" y1="80.1236" x2="73.6054" y2="153.664" gradientUnits="userSpaceOnUse">
<stop stop-color="#DA3276"/>
<stop offset="1" stop-color="#ED722E"/>
</linearGradient>
<linearGradient id="paint2_linear_1361_372" x1="89.4061" y1="31.1361" x2="85.0468" y2="35.4093" gradientUnits="userSpaceOnUse">
<stop stop-color="#DA3276"/>
<stop offset="1" stop-color="#ED722E"/>
</linearGradient>
<linearGradient id="paint3_linear_1361_372" x1="118.2" y1="4.20956" x2="53.0347" y2="100.057" gradientUnits="userSpaceOnUse">
<stop stop-color="#DA3276"/>
<stop offset="1" stop-color="#ED722E"/>
</linearGradient>
<clipPath id="clip0_1361_372">
<rect width="128" height="128" fill="white"/>
</clipPath>
</defs>
</svg>
