<svg width="32" height="32" viewBox="0 0 32 32" fill="none" xmlns="http://www.w3.org/2000/svg">
<path fill-rule="evenodd" clip-rule="evenodd" d="M5.74271 29.9995C3.67581 29.9995 2 28.3394 2 26.2919C2 24.2444 3.67581 22.5843 5.74271 22.5843C7.8096 22.5843 9.48542 24.2439 9.48542 26.2919C9.48542 28.3399 7.8096 29.9995 5.74271 29.9995Z" fill="white"/>
<path fill-rule="evenodd" clip-rule="evenodd" d="M5.74271 9.41462C3.67581 9.41462 2 7.75507 2 5.70704C2 3.65901 3.67581 2 5.74271 2C7.8096 2 9.48542 3.65955 9.48542 5.70704C9.48542 7.75453 7.8096 9.41462 5.74271 9.41462Z" fill="white"/>
<path fill-rule="evenodd" clip-rule="evenodd" d="M26.5221 29.9995C24.4552 29.9995 22.7793 28.3394 22.7793 26.2919C22.7793 24.2444 24.4552 22.5843 26.5221 22.5843C28.5889 22.5843 30.2648 24.2439 30.2648 26.2919C30.2648 28.3399 28.5889 29.9995 26.5221 29.9995Z" fill="white"/>
<path fill-rule="evenodd" clip-rule="evenodd" d="M26.5221 19.7065C24.4552 19.7065 22.7793 18.047 22.7793 15.9995C22.7793 13.952 24.4552 12.2919 26.5221 12.2919C28.5889 12.2919 30.2648 13.9514 30.2648 15.9995C30.2648 18.0475 28.5889 19.7065 26.5221 19.7065Z" fill="white"/>
<path fill-rule="evenodd" clip-rule="evenodd" d="M5.74271 12.2924C3.67582 12.2924 2 13.952 2 15.9995C2 18.047 3.67582 19.707 5.74271 19.707H5.7525C7.57517 19.7022 9.14547 20.3445 10.4346 21.6214L10.4574 21.6446C11.7465 22.9216 12.3943 24.4772 12.3899 26.2827V26.2924C12.3899 28.3399 14.0652 30 16.1321 30C18.199 30 19.8748 28.3399 19.8748 26.2924C19.8748 24.2449 18.199 22.5848 16.1321 22.5848H16.1223C14.2996 22.5897 12.7294 21.9474 11.4403 20.6704L11.4169 20.6473C10.1278 19.3703 9.47998 17.8147 9.48433 16.0092V16.0022V16.0011V16V15.9989V15.9978V15.9968V15.9892C9.47998 14.1837 10.1278 12.6281 11.4169 11.3511L11.4403 11.3285C12.7294 10.0515 14.2996 9.40977 16.1223 9.41408H16.1321C18.199 9.41408 19.8748 7.75399 19.8748 5.7065C19.8748 3.65901 18.199 2 16.1321 2C14.0652 2 12.3899 3.65955 12.3899 5.70758V5.71728C12.3943 7.52284 11.7465 9.0784 10.4574 10.3554L10.4346 10.378C9.14547 11.655 7.57517 12.2967 5.7525 12.2924H5.74271Z" fill="white"/>
<path fill-rule="evenodd" clip-rule="evenodd" d="M16.1321 12.2925C14.0652 12.2925 12.3899 13.952 12.3899 16C12.3899 18.0481 14.0652 19.7076 16.1321 19.7076C18.199 19.7076 19.8748 18.0475 19.8748 16V15.9903C19.8705 14.1848 20.5183 12.6292 21.8074 11.3522L21.8308 11.3296C23.1198 10.0526 24.6901 9.41087 26.5128 9.41519H26.5226C28.5895 9.41519 30.2653 7.7551 30.2653 5.70761C30.2653 3.66012 28.5889 2.00003 26.5221 2.00003C24.4552 2.00003 22.7799 3.65958 22.7799 5.70761V5.71731C22.7842 7.52287 22.1364 9.07843 20.8473 10.3554L20.8245 10.378C19.5354 11.655 17.9651 12.2968 16.1424 12.2925H16.1327" fill="url(#paint0_linear_1363_515)"/>
<defs>
<linearGradient id="paint0_linear_1363_515" x1="28.8125" y1="2.92657" x2="13.3679" y2="18.2057" gradientUnits="userSpaceOnUse">
<stop stop-color="#DA3276"/>
<stop offset="1" stop-color="#ED722E"/>
</linearGradient>
</defs>
</svg>
